<?xml version="1.0" encoding="UTF-8" standalone="no"?><!DOCTYPE svg PUBLIC "-//W3C//DTD SVG 1.1//EN" "http://www.w3.org/Graphics/SVG/1.1/DTD/svg11.dtd"><svg width="100%" height="100%" viewBox="0 0 2084 2084" version="1.1" xmlns="http://www.w3.org/2000/svg" xmlns:xlink="http://www.w3.org/1999/xlink" xml:space="preserve" xmlns:serif="http://www.serif.com/" style="fill-rule:evenodd;clip-rule:evenodd;stroke-linecap:round;stroke-linejoin:round;stroke-miterlimit:4.62209;"><g><g><path d="M417.183,1812.05c9.19,2.732 16.766,8.072 22.727,16.02c5.961,7.949 9.314,19.002 10.06,33.16c0.745,13.412 1.304,25.956 1.676,37.63c0.373,11.674 0.683,24.217 0.932,37.63c0.248,6.955 -1.801,12.419 -6.148,16.393c-4.347,3.974 -9.997,6.21 -16.952,6.706c-6.706,0.497 -12.543,-1.241 -17.511,-5.216c-4.968,-3.974 -7.824,-9.19 -8.569,-15.648c-0.497,-4.471 -0.683,-9.128 -0.559,-13.971c0.124,-4.844 0.062,-9.749 -0.186,-14.717c-0.497,-8.197 -0.87,-15.586 -1.118,-22.168c-0.249,-6.582 -0.87,-13.848 -1.863,-21.796c-0.745,-7.7 -3.85,-13.102 -9.314,-16.207c-5.465,-3.105 -12.42,-5.278 -20.865,-6.52c-0.248,1.739 -0.434,3.415 -0.559,5.03c-0.124,1.614 -0.186,3.167 -0.186,4.657c-0.248,11.922 -0.372,23.721 -0.372,35.395l-0,35.767c-0,2.484 -0.062,4.781 -0.187,6.892c-0.124,2.112 -0.31,4.161 -0.559,6.148c-1.241,8.197 -4.408,14.158 -9.5,17.884c-5.092,3.725 -11.612,5.34 -19.56,4.843c-6.955,-0.497 -12.357,-3.105 -16.207,-7.824c-3.85,-4.719 -5.775,-10.929 -5.775,-18.629c0.745,-37.754 1.055,-75.012 0.931,-111.772c-0.124,-36.761 -0.31,-73.646 -0.559,-110.655l0,-58.494c0,-9.439 2.981,-16.456 8.942,-21.051c5.961,-4.595 13.661,-6.147 23.1,-4.657c7.451,1.242 14.654,1.49 21.609,0.745c15.648,-0.993 29.123,1.677 40.424,8.01c11.302,6.334 20.678,16.208 28.13,29.62c15.4,26.577 19.25,54.893 11.55,84.947c-2.733,11.674 -6.831,22.665 -12.295,32.973c-5.465,10.308 -12.544,19.933 -21.237,28.875Zm-48.062,-32.042c5.216,0.249 9.749,-1.242 13.599,-4.471c3.85,-3.229 7.017,-7.203 9.5,-11.922c2.484,-4.719 4.471,-9.687 5.962,-14.903c1.49,-5.216 2.608,-9.935 3.353,-14.158c1.987,-9.438 2.297,-18.38 0.931,-26.825c-1.366,-8.445 -4.657,-16.766 -9.873,-24.963c-5.961,-8.942 -13.785,-11.798 -23.472,-8.569l-0,105.811Z" style="fill-rule:nonzero;"/><path d="M485.364,1679.41c1.49,-7.451 4.036,-14.406 7.638,-20.864c3.602,-6.458 8.072,-12.171 13.413,-17.139c5.34,-4.967 11.363,-9.066 18.07,-12.295c6.706,-3.229 14.033,-5.34 21.981,-6.333c7.204,-0.994 14.22,-0.497 21.051,1.49c6.831,1.987 13.351,4.843 19.56,8.569c11.177,7.7 19.498,16.518 24.963,26.453c5.464,9.935 9.19,20.864 11.177,32.787c1.49,8.693 2.546,17.324 3.167,25.894c0.621,8.569 1.18,17.2 1.676,25.894c1.242,22.106 1.925,44.274 2.05,66.504c0.124,22.23 -1.056,44.275 -3.54,66.132c-0.993,8.445 -2.422,16.518 -4.285,24.218c-1.862,7.699 -4.532,15.151 -8.01,22.354c-4.471,9.19 -9.811,16.704 -16.021,22.541c-6.209,5.837 -13.04,10.122 -20.491,12.854c-7.452,2.732 -15.338,4.16 -23.659,4.284c-8.321,0.125 -16.579,-0.931 -24.776,-3.167c-11.177,-2.235 -20.181,-7.078 -27.012,-14.53c-6.83,-7.451 -11.984,-15.896 -15.462,-25.335c-3.477,-8.197 -5.961,-16.518 -7.451,-24.963c-1.49,-8.445 -2.484,-17.138 -2.981,-26.08c-0.496,-15.896 -0.869,-31.855 -1.117,-47.876c-0.249,-16.02 -0.187,-31.917 0.186,-47.689c0.373,-15.773 1.304,-31.483 2.794,-47.131c1.491,-15.648 3.85,-31.172 7.079,-46.572Zm88.673,24.59c-0.745,-10.68 -3.105,-18.505 -7.079,-23.472c-3.974,-4.968 -8.197,-7.39 -12.667,-7.265c-4.471,0.124 -8.694,2.732 -12.668,7.824c-3.974,5.092 -6.458,12.357 -7.451,21.795c-1.491,16.89 -2.609,32.973 -3.354,48.249c-0.745,15.275 -1.242,30.116 -1.49,44.522c-0.248,14.407 -0.31,28.378 -0.186,41.915c0.124,13.537 0.31,27.012 0.559,40.425c-0,11.674 2.049,20.553 6.147,26.639c4.098,6.085 8.818,9.252 14.158,9.5c5.34,0.249 10.37,-2.484 15.089,-8.196c4.72,-5.713 7.7,-14.531 8.942,-26.453c2.981,-31.545 4.595,-61.723 4.844,-90.536c0.248,-28.812 -1.367,-57.128 -4.844,-84.947Z" style="fill-rule:nonzero;"/><path d="M657.494,1839.25c0.497,-4.471 1.925,-8.321 4.284,-11.55c2.36,-3.229 5.279,-5.775 8.756,-7.638c3.477,-1.863 7.265,-2.794 11.363,-2.794c4.099,-0 8.135,0.993 12.109,2.98c8.694,4.471 13.04,11.674 13.04,21.61l0,39.12c0,5.216 0.373,10.432 1.118,15.648c1.49,9.19 6.831,13.91 16.021,14.158c2.98,0.249 5.464,-0.31 7.451,-1.676c1.987,-1.367 3.54,-3.105 4.657,-5.217c1.118,-2.111 1.925,-4.47 2.422,-7.078c0.497,-2.608 0.745,-5.03 0.745,-7.266c-0.496,-6.458 -0.931,-13.102 -1.304,-19.932c-0.372,-6.831 -0.807,-13.599 -1.304,-20.306c-0.496,-7.7 -2.608,-14.53 -6.333,-20.491c-3.726,-5.962 -8.694,-11.302 -14.903,-16.021c-5.217,-4.223 -10.246,-8.383 -15.09,-12.481c-4.843,-4.099 -9.997,-8.135 -15.462,-12.109c-24.093,-17.138 -35.394,-40.487 -33.904,-70.044c0.497,-4.968 0.807,-9.998 0.931,-15.089c0.125,-5.092 0.435,-10.37 0.932,-15.835c0.745,-7.451 2.608,-14.717 5.589,-21.796c2.98,-7.078 6.892,-13.536 11.736,-19.373c4.843,-5.837 10.432,-10.557 16.766,-14.158c6.333,-3.602 13.226,-5.651 20.677,-6.148c6.458,-0.248 12.854,-0.248 19.188,0c6.334,0.249 12.606,1.242 18.815,2.981c11.923,3.229 20.989,9.066 27.198,17.511c6.21,8.445 10.308,18.38 12.295,29.806c1.242,8.445 1.987,17.076 2.236,25.894c0.248,8.817 0.372,17.573 0.372,26.266c0,6.955 -2.422,12.668 -7.265,17.139c-4.844,4.471 -10.743,6.706 -17.697,6.706c-6.458,0 -12.109,-2.111 -16.953,-6.334c-4.843,-4.222 -7.513,-9.811 -8.01,-16.765c-0.497,-5.465 -0.807,-10.743 -0.931,-15.835c-0.125,-5.092 -0.311,-10.122 -0.559,-15.089c-0.249,-1.49 -0.373,-2.981 -0.373,-4.471c0,-1.49 -0.124,-2.856 -0.372,-4.098c-1.491,-8.445 -5.837,-12.792 -13.041,-13.041c-4.719,-0.248 -8.755,0.559 -12.108,2.422c-3.353,1.863 -5.278,4.906 -5.775,9.128c-0.745,7.949 -1.18,15.773 -1.304,23.473c-0.124,7.699 0.062,15.523 0.559,23.472c0.248,2.235 1.366,4.533 3.353,6.892c1.987,2.36 3.974,4.533 5.961,6.52c4.968,3.975 9.998,7.887 15.089,11.737c5.092,3.849 10.246,7.762 15.462,11.736c28.564,20.615 43.467,48.559 44.709,83.829c0.249,8.197 0.559,16.269 0.932,24.217c0.372,7.949 0.683,16.021 0.931,24.218c0.248,7.203 -0.621,13.723 -2.608,19.56c-1.987,5.837 -4.719,10.929 -8.197,15.276c-3.477,4.346 -7.451,8.01 -11.922,10.991c-4.471,2.98 -9.066,5.216 -13.785,6.706c-9.687,3.229 -19.436,4.968 -29.247,5.216c-9.812,0.248 -19.436,-0.621 -28.875,-2.608c-10.432,-1.739 -19.125,-7.141 -26.08,-16.207c-6.955,-9.066 -10.929,-19.56 -11.923,-31.483c-0.745,-11.922 -0.931,-23.969 -0.558,-36.139c0.372,-12.171 0.434,-24.218 0.186,-36.14Z" style="fill-rule:nonzero;"/><path d="M863.9,1832.17c0,5.961 -0.062,11.922 -0.186,17.883c-0.124,5.962 0.062,11.923 0.559,17.884c0.497,5.216 0.869,10.432 1.118,15.648c0.248,5.216 1.117,9.873 2.608,13.972c1.49,4.098 4.036,7.327 7.637,9.687c3.602,2.359 9.129,3.291 16.58,2.794c3.477,-0.248 7.203,-0.621 11.177,-1.118c3.974,-0.497 7.7,-0.745 11.178,-0.745c2.98,0 6.023,0.062 9.128,0.186c3.104,0.125 6.147,0.559 9.128,1.304c9.19,2.981 14.406,9.563 15.648,19.747c0.497,4.968 -0.373,9.252 -2.608,12.854c-2.236,3.601 -5.465,6.396 -9.687,8.383c-1.242,1.242 -2.794,2.111 -4.657,2.608c-1.863,0.496 -3.788,0.869 -5.775,1.117c-8.197,0.994 -16.828,1.863 -25.894,2.608c-9.066,0.746 -17.573,1.367 -25.522,1.863c-12.17,0.497 -22.168,-1.428 -29.992,-5.775c-7.824,-4.346 -13.971,-10.742 -18.442,-19.187c-4.471,-8.445 -7.7,-18.753 -9.687,-30.924c-1.987,-12.171 -3.229,-25.708 -3.726,-40.611c-0.745,-20.119 -0.869,-40.176 -0.373,-60.17c0.497,-19.995 0.994,-40.052 1.491,-60.171c0.497,-15.152 1.863,-29.993 4.098,-44.523c2.236,-14.53 6.21,-28.378 11.922,-41.542c7.949,-18.877 21.858,-28.688 41.729,-29.434c8.445,-0.248 17.387,-0.248 26.825,0c12.419,0.497 23.162,4.285 32.228,11.364c9.066,7.079 15.338,16.58 18.815,28.502c1.242,3.974 2.236,8.01 2.981,12.109c0.745,4.098 0.993,8.01 0.745,11.736c-0.497,14.903 -1.304,29.744 -2.422,44.522c-1.118,14.779 -2.297,29.496 -3.539,44.151c-0.249,2.235 -0.683,4.47 -1.304,6.706c-0.621,2.235 -1.304,4.471 -2.05,6.706c-7.203,22.106 -22.23,34.65 -45.081,37.63c-5.465,0.746 -11.053,1.18 -16.766,1.304c-5.713,0.125 -11.674,0.435 -17.884,0.932Zm17.139,-49.18c3.229,-0 5.775,-0.062 7.638,-0.186c1.862,-0.125 3.353,-0.621 4.471,-1.491c1.117,-0.869 1.862,-2.173 2.235,-3.912c0.373,-1.738 0.807,-4.098 1.304,-7.079c1.242,-9.19 2.173,-18.132 2.794,-26.825c0.621,-8.693 1.304,-17.511 2.049,-26.453c0.249,-4.471 0.435,-8.88 0.559,-13.226c0.125,-4.347 0.062,-8.632 -0.186,-12.854c-0.248,-2.981 -1.056,-5.589 -2.422,-7.824c-1.366,-2.236 -3.663,-3.726 -6.892,-4.471c-3.229,-0.745 -6.396,-0.807 -9.501,-0.186c-3.105,0.621 -5.651,2.421 -7.638,5.402c-1.242,1.49 -2.235,3.105 -2.98,4.843c-0.746,1.739 -1.242,3.602 -1.491,5.589c-2.98,14.655 -4.781,29.185 -5.402,43.591c-0.621,14.407 -1.18,29.434 -1.677,45.082l17.139,-0Z" style="fill-rule:nonzero;"/><path d="M1023.36,1642.9c6.955,-4.968 13.848,-8.632 20.678,-10.991c6.831,-2.36 13.972,-3.291 21.423,-2.795c11.426,1.242 20.865,4.409 28.316,9.501c7.452,5.092 13.475,11.426 18.07,19.001c4.595,7.576 7.886,15.959 9.873,25.149c1.987,9.19 3.105,18.505 3.353,27.943c0,23.597 -0.124,47.193 -0.372,70.79c-0.248,23.596 -0.497,47.192 -0.745,70.789c-0.249,13.413 -0.435,26.515 -0.559,39.307c-0.124,12.791 -0.311,25.769 -0.559,38.934l0,5.402c0,1.863 -0.124,3.788 -0.373,5.775c-1.241,6.706 -4.222,11.86 -8.941,15.462c-4.72,3.601 -10.308,5.278 -16.766,5.029c-6.458,-0.248 -11.798,-2.173 -16.021,-5.774c-4.222,-3.602 -6.831,-8.632 -7.824,-15.09c-0.497,-2.732 -0.745,-5.34 -0.745,-7.824l-0,-7.824c0.497,-28.316 0.993,-56.197 1.49,-83.643c0.497,-27.446 0.994,-55.452 1.49,-84.016c0.249,-9.19 0.187,-18.442 -0.186,-27.756c-0.372,-9.315 -0.807,-18.691 -1.304,-28.13c-0.248,-2.98 -0.745,-6.085 -1.49,-9.314c-0.745,-3.229 -1.925,-6.272 -3.54,-9.128c-1.614,-2.857 -3.663,-5.154 -6.147,-6.893c-2.484,-1.739 -5.34,-2.608 -8.569,-2.608c-4.968,0 -9.128,2.235 -12.482,6.706c-3.353,4.471 -6.085,9.687 -8.196,15.649c-2.112,5.961 -3.664,11.984 -4.657,18.069c-0.994,6.086 -1.615,10.867 -1.863,14.345c-0.497,7.948 -0.87,15.648 -1.118,23.099c-0.248,7.452 -0.497,15.152 -0.745,23.1c-0,13.164 -0.062,26.328 -0.187,39.493c-0.124,13.164 0.063,26.204 0.559,39.12c0.497,13.164 1.118,25.397 1.863,36.699c0.745,11.301 1.366,23.286 1.863,35.953c0.248,2.484 0.373,5.03 0.373,7.638c-0,2.608 -0.249,5.278 -0.745,8.01c-1.242,6.21 -4.285,11.116 -9.129,14.717c-4.843,3.602 -10.742,5.154 -17.697,4.657c-5.713,-0.496 -10.805,-2.67 -15.275,-6.52c-4.471,-3.85 -6.955,-9.004 -7.452,-15.462c-0.993,-13.412 -1.863,-26.204 -2.608,-38.375c-0.745,-12.171 -1.366,-25.335 -1.863,-39.493c-0.497,-13.661 -0.621,-27.446 -0.372,-41.356c0.248,-13.909 0.248,-27.943 -0,-42.101c-0.249,-21.112 -0.497,-42.038 -0.746,-62.778c-0.248,-20.74 -0.496,-41.418 -0.745,-62.034l0,-10.06c0.745,-6.458 2.981,-11.674 6.707,-15.648c3.725,-3.974 8.32,-6.458 13.785,-7.451c5.961,-0.994 11.426,-0.125 16.393,2.608c4.968,2.732 8.694,7.203 11.177,13.412c0.746,1.491 1.615,3.726 2.608,6.707Z" style="fill-rule:nonzero;"/><path d="M1200.71,1863.46c0.249,6.21 0.435,12.047 0.559,17.511c0.124,5.465 0.248,10.805 0.373,16.021c0.124,5.216 0.248,10.432 0.372,15.648c0.124,5.216 0.311,10.805 0.559,16.766c0,1.987 0.062,3.788 0.186,5.402c0.125,1.615 0.062,3.291 -0.186,5.03c-0.745,5.961 -3.167,10.867 -7.265,14.717c-4.098,3.85 -9.128,6.147 -15.089,6.892c-6.21,0.497 -11.737,-0.745 -16.58,-3.725c-4.844,-2.981 -8.135,-7.204 -9.873,-12.668c-1.491,-2.981 -2.236,-6.831 -2.236,-11.55c-0.496,-43.218 -0.993,-85.257 -1.49,-126.116c-0.497,-40.859 -0.994,-82.774 -1.49,-125.744c-0.249,-4.471 -0.435,-8.942 -0.559,-13.413c-0.124,-4.471 -0.062,-8.942 0.186,-13.413c0.248,-9.438 2.857,-16.642 7.824,-21.609c4.968,-4.968 12.171,-7.452 21.61,-7.452c12.419,0.249 25.21,1.366 38.375,3.353c9.438,1.491 17.759,4.72 24.962,9.687c7.203,4.968 13.413,11.302 18.629,19.002c5.713,7.451 10.122,15.399 13.226,23.845c3.105,8.445 5.279,17.386 6.521,26.825c1.738,13.413 2.359,26.577 1.862,39.493c-0.496,12.916 -2.732,26.08 -6.706,39.493c-3.477,13.909 -9.128,26.142 -16.952,36.698c-7.824,10.557 -17.822,19.312 -29.992,26.267c-3.975,2.732 -8.259,4.968 -12.854,6.706c-4.595,1.739 -9.253,3.85 -13.972,6.334Zm-1.118,-189.641c-0.745,23.1 -1.055,45.889 -0.931,68.368c0.124,22.479 0.559,45.392 1.304,68.74c7.948,-4.471 13.847,-9.997 17.697,-16.58c3.85,-6.582 6.645,-13.599 8.383,-21.05c2.733,-9.935 4.223,-19.995 4.471,-30.179c0.249,-10.183 -0.372,-20.491 -1.863,-30.923c-0.745,-5.216 -1.925,-10.246 -3.539,-15.09c-1.615,-4.843 -4.036,-9.376 -7.265,-13.599c-1.987,-2.732 -4.409,-4.967 -7.266,-6.706c-2.856,-1.739 -6.52,-2.732 -10.991,-2.981Z" style="fill-rule:nonzero;"/><path d="M1403.76,1739.02c0.496,-9.19 0.621,-18.442 0.372,-27.757c-0.248,-9.314 -1.614,-18.442 -4.098,-27.384c-1.242,-4.968 -4.533,-8.756 -9.873,-11.364c-5.341,-2.608 -10.991,-3.291 -16.953,-2.049c-3.725,0.994 -7.513,1.677 -11.363,2.049c-3.85,0.373 -7.638,-0.062 -11.364,-1.304c-4.471,-1.738 -8.072,-4.098 -10.804,-7.079c-2.733,-2.98 -4.099,-6.83 -4.099,-11.549c-0.496,-9.936 4.099,-16.766 13.786,-20.492c8.196,-3.477 16.765,-5.837 25.707,-7.079c8.445,-0.993 16.766,-0.435 24.963,1.677c8.196,2.111 15.648,5.402 22.354,9.873c6.707,4.471 12.482,9.873 17.325,16.207c4.844,6.334 8.135,13.351 9.873,21.05c1.491,6.707 2.67,13.475 3.54,20.306c0.869,6.83 1.18,13.723 0.931,20.678c-0.497,24.341 -1.118,48.372 -1.863,72.093c-0.745,23.721 -1.614,47.627 -2.608,71.721c-0.496,10.68 -0.745,21.174 -0.745,31.482c0,10.308 -0.124,20.802 -0.372,31.483c-0.249,2.484 -0.435,4.967 -0.559,7.451c-0.124,2.484 -0.311,5.092 -0.559,7.824c-1.242,5.713 -3.664,10.432 -7.265,14.158c-3.602,3.726 -8.135,6.086 -13.599,7.079c-13.165,1.739 -26.019,2.546 -38.562,2.422c-12.543,-0.124 -24.9,-1.801 -37.071,-5.03c-13.413,-2.732 -24.155,-8.321 -32.228,-16.766c-8.072,-8.445 -12.978,-19.249 -14.717,-32.414c-4.47,-37.257 -1.862,-74.763 7.825,-112.517c2.235,-7.452 5.464,-14.903 9.686,-22.355c6.707,-11.922 16.518,-21.05 29.434,-27.384c12.916,-6.334 26.701,-8.507 41.356,-6.52c1.987,0.248 3.85,0.497 5.588,0.745c1.739,0.248 3.726,0.497 5.962,0.745Zm-2.236,49.18c-0.993,-0.497 -1.801,-0.869 -2.422,-1.118c-0.621,-0.248 -1.179,-0.621 -1.676,-1.117c-18.629,-8.197 -30.924,-2.981 -36.885,15.648c-0.249,0.496 -0.373,1.055 -0.373,1.676c0,0.621 -0.124,1.304 -0.372,2.049c-3.478,12.668 -5.589,25.211 -6.334,37.63c-0.745,12.42 -1.118,25.087 -1.118,38.003c-0.248,2.981 -0.124,6.023 0.373,9.128c0.497,3.105 0.993,6.272 1.49,9.501c0.745,9.19 5.713,14.034 14.903,14.53c4.719,0.497 9.439,0.683 14.158,0.559c4.719,-0.124 9.563,-0.186 14.53,-0.186c0.497,-21.113 1.118,-41.977 1.863,-62.593c0.745,-20.616 1.366,-41.852 1.863,-63.71Z" style="fill-rule:nonzero;"/><path d="M1480.88,1839.25c0.496,-4.471 1.925,-8.321 4.284,-11.55c2.36,-3.229 5.278,-5.775 8.756,-7.638c3.477,-1.863 7.265,-2.794 11.363,-2.794c4.099,-0 8.135,0.993 12.109,2.98c8.693,4.471 13.04,11.674 13.04,21.61l0,39.12c0,5.216 0.373,10.432 1.118,15.648c1.49,9.19 6.83,13.91 16.021,14.158c2.98,0.249 5.464,-0.31 7.451,-1.676c1.987,-1.367 3.539,-3.105 4.657,-5.217c1.118,-2.111 1.925,-4.47 2.422,-7.078c0.497,-2.608 0.745,-5.03 0.745,-7.266c-0.497,-6.458 -0.931,-13.102 -1.304,-19.932c-0.373,-6.831 -0.807,-13.599 -1.304,-20.306c-0.497,-7.7 -2.608,-14.53 -6.334,-20.491c-3.725,-5.962 -8.693,-11.302 -14.903,-16.021c-5.216,-4.223 -10.246,-8.383 -15.089,-12.481c-4.843,-4.099 -9.997,-8.135 -15.462,-12.109c-24.093,-17.138 -35.394,-40.487 -33.904,-70.044c0.497,-4.968 0.807,-9.998 0.931,-15.089c0.124,-5.092 0.435,-10.37 0.932,-15.835c0.745,-7.451 2.608,-14.717 5.588,-21.796c2.981,-7.078 6.893,-13.536 11.736,-19.373c4.844,-5.837 10.433,-10.557 16.766,-14.158c6.334,-3.602 13.227,-5.651 20.678,-6.148c6.458,-0.248 12.854,-0.248 19.188,0c6.334,0.249 12.605,1.242 18.815,2.981c11.922,3.229 20.988,9.066 27.198,17.511c6.209,8.445 10.308,18.38 12.295,29.806c1.242,8.445 1.987,17.076 2.235,25.894c0.249,8.817 0.373,17.573 0.373,26.266c-0,6.955 -2.422,12.668 -7.265,17.139c-4.844,4.471 -10.743,6.706 -17.698,6.706c-6.458,0 -12.108,-2.111 -16.952,-6.334c-4.843,-4.222 -7.513,-9.811 -8.01,-16.765c-0.497,-5.465 -0.807,-10.743 -0.932,-15.835c-0.124,-5.092 -0.31,-10.122 -0.559,-15.089c-0.248,-1.49 -0.372,-2.981 -0.372,-4.471c-0,-1.49 -0.124,-2.856 -0.373,-4.098c-1.49,-8.445 -5.837,-12.792 -13.04,-13.041c-4.719,-0.248 -8.755,0.559 -12.108,2.422c-3.354,1.863 -5.279,4.906 -5.775,9.128c-0.746,7.949 -1.18,15.773 -1.304,23.473c-0.125,7.699 0.062,15.523 0.558,23.472c0.249,2.235 1.367,4.533 3.354,6.892c1.987,2.36 3.974,4.533 5.961,6.52c4.968,3.975 9.997,7.887 15.089,11.737c5.092,3.849 10.246,7.762 15.462,11.736c28.564,20.615 43.467,48.559 44.709,83.829c0.248,8.197 0.559,16.269 0.931,24.217c0.373,7.949 0.683,16.021 0.932,24.218c0.248,7.203 -0.621,13.723 -2.608,19.56c-1.987,5.837 -4.719,10.929 -8.197,15.276c-3.477,4.346 -7.451,8.01 -11.922,10.991c-4.471,2.98 -9.066,5.216 -13.785,6.706c-9.687,3.229 -19.436,4.968 -29.248,5.216c-9.811,0.248 -19.436,-0.621 -28.874,-2.608c-10.432,-1.739 -19.126,-7.141 -26.08,-16.207c-6.955,-9.066 -10.929,-19.56 -11.923,-31.483c-0.745,-11.922 -0.931,-23.969 -0.559,-36.139c0.373,-12.171 0.435,-24.218 0.187,-36.14Z" style="fill-rule:nonzero;"/><path d="M1638.11,1839.25c0.497,-4.471 1.925,-8.321 4.285,-11.55c2.359,-3.229 5.278,-5.775 8.755,-7.638c3.478,-1.863 7.266,-2.794 11.364,-2.794c4.098,-0 8.134,0.993 12.109,2.98c8.693,4.471 13.04,11.674 13.04,21.61l-0,39.12c-0,5.216 0.372,10.432 1.117,15.648c1.491,9.19 6.831,13.91 16.021,14.158c2.981,0.249 5.465,-0.31 7.452,-1.676c1.987,-1.367 3.539,-3.105 4.657,-5.217c1.118,-2.111 1.925,-4.47 2.422,-7.078c0.496,-2.608 0.745,-5.03 0.745,-7.266c-0.497,-6.458 -0.932,-13.102 -1.304,-19.932c-0.373,-6.831 -0.808,-13.599 -1.304,-20.306c-0.497,-7.7 -2.608,-14.53 -6.334,-20.491c-3.726,-5.962 -8.693,-11.302 -14.903,-16.021c-5.216,-4.223 -10.246,-8.383 -15.089,-12.481c-4.844,-4.099 -9.998,-8.135 -15.462,-12.109c-24.093,-17.138 -35.395,-40.487 -33.905,-70.044c0.497,-4.968 0.808,-9.998 0.932,-15.089c0.124,-5.092 0.435,-10.37 0.931,-15.835c0.745,-7.451 2.608,-14.717 5.589,-21.796c2.981,-7.078 6.893,-13.536 11.736,-19.373c4.844,-5.837 10.432,-10.557 16.766,-14.158c6.334,-3.602 13.226,-5.651 20.678,-6.148c6.458,-0.248 12.854,-0.248 19.187,0c6.334,0.249 12.606,1.242 18.816,2.981c11.922,3.229 20.988,9.066 27.197,17.511c6.21,8.445 10.308,18.38 12.295,29.806c1.242,8.445 1.988,17.076 2.236,25.894c0.248,8.817 0.372,17.573 0.372,26.266c0,6.955 -2.421,12.668 -7.265,17.139c-4.843,4.471 -10.742,6.706 -17.697,6.706c-6.458,0 -12.109,-2.111 -16.952,-6.334c-4.844,-4.222 -7.514,-9.811 -8.011,-16.765c-0.496,-5.465 -0.807,-10.743 -0.931,-15.835c-0.124,-5.092 -0.31,-10.122 -0.559,-15.089c-0.248,-1.49 -0.372,-2.981 -0.372,-4.471c-0,-1.49 -0.125,-2.856 -0.373,-4.098c-1.49,-8.445 -5.837,-12.792 -13.04,-13.041c-4.719,-0.248 -8.756,0.559 -12.109,2.422c-3.353,1.863 -5.278,4.906 -5.775,9.128c-0.745,7.949 -1.18,15.773 -1.304,23.473c-0.124,7.699 0.062,15.523 0.559,23.472c0.248,2.235 1.366,4.533 3.353,6.892c1.987,2.36 3.974,4.533 5.961,6.52c4.968,3.975 9.998,7.887 15.09,11.737c5.092,3.849 10.246,7.762 15.462,11.736c28.564,20.615 43.467,48.559 44.709,83.829c0.248,8.197 0.558,16.269 0.931,24.217c0.373,7.949 0.683,16.021 0.932,24.218c0.248,7.203 -0.621,13.723 -2.609,19.56c-1.987,5.837 -4.719,10.929 -8.196,15.276c-3.478,4.346 -7.452,8.01 -11.923,10.991c-4.47,2.98 -9.066,5.216 -13.785,6.706c-9.687,3.229 -19.436,4.968 -29.247,5.216c-9.811,0.248 -19.436,-0.621 -28.875,-2.608c-10.432,-1.739 -19.125,-7.141 -26.08,-16.207c-6.955,-9.066 -10.929,-19.56 -11.922,-31.483c-0.745,-11.922 -0.932,-23.969 -0.559,-36.139c0.373,-12.171 0.435,-24.218 0.186,-36.14Z" style="fill-rule:nonzero;"/></g><path d="M1317.25,827.065c-0,-0 99.434,268.685 3.09,475.902c-96.344,207.216 -240.174,193.452 -283.758,209.51c-43.584,16.057 -233.214,-35.173 -295.914,-188.865c-62.7,-153.692 -29.056,-402.198 -29.056,-402.198l-0.461,-24.821c-0,-0 -32.282,-64.196 -93.551,-168.398c-98.821,-169.975 -278.014,-475.25 -231.24,-548.6c46.775,-73.348 140.984,-93.352 234.534,-7.638c94.209,85.594 195.005,341.101 223.335,621.887c0,0 138.349,-56.86 285.921,-8.608c-0,0 28.328,-218.226 144.937,-382.563c115.949,-164.277 279.992,-275.694 391.329,-247.628c111.338,28.068 86.963,145.789 -15.812,235.869c-102.773,90.079 -313.59,370.744 -333.354,436.151Z" style="fill:#fff;"/><path d="M719.923,1392.3l-199.173,10.729l7.906,114.873l73.128,-3.516l-14.494,-53.83l69.174,-3.152l-5.27,52.921l72.468,-2.608l-3.739,-115.417Z" style="fill:#fff;"/><path id="pink" d="M1068.57,1504.51l-69.175,-2.964c22.4,-1.187 13.836,-10.541 6.588,-15.153c-38.211,-24.573 -63.904,-91.573 -54.681,-94.604c0,-0 65.881,20.094 81.034,20.489c24.375,0.725 62.586,-4.48 76.421,-28.593c3.294,-5.797 17.128,-28.46 10.54,-28.328c-110.019,2.241 -127.807,-61.401 -126.489,-89.926c-0,-0 100.796,28.856 126.489,-6.061c25.035,-34.983 -9.222,-148.429 25.694,-203.702c13.835,-21.873 34.257,-39.858 54.022,-56.855c28.329,-23.585 75.104,-32.743 83.01,-67.133c5.27,-23.321 -20.423,-61.532 -29.647,-72.139c-18.446,-21.674 -40.187,-40.977 -61.269,-60.214c14.494,-45.392 28.987,-90.981 48.093,-135.055c40.846,-96.053 105.409,-172.607 160.748,-264.707c54.681,-92.233 228.604,-136.768 192.372,-64.893c-0,0 -83.01,95.329 -88.28,100.995c-108.703,129.915 -153.502,207.787 -232.558,342.644c12.517,12.846 24.376,25.759 34.917,39.857c9.882,13.704 17.788,48.027 24.375,63.378c31.624,70.162 30.306,141.51 30.964,210.223c1.318,133.144 -40.186,252.191 -149.548,342.973c-36.893,30.569 -90.915,65.485 -143.619,69.768l-0.001,0Zm-152.843,-349.101c0,0 -102.773,5.798 -119.902,-82.548c-19.764,-106.66 48.092,-89.399 86.303,-49.08c38.21,40.319 33.599,131.628 33.599,131.628Z" style="fill:#f70484;"/><path d="M711.146,896.593c-0,-0 -32.282,-64.196 -93.551,-168.398c-98.821,-169.975 -278.014,-475.25 -231.24,-548.6c46.775,-73.348 140.984,-93.352 234.534,-7.638c94.209,85.594 195.005,341.101 223.335,621.887c0,0 138.349,-56.86 285.921,-8.608c-0,0 28.328,-218.226 144.937,-382.563c115.949,-164.277 279.992,-275.694 391.329,-247.628c111.338,28.068 86.963,145.789 -15.812,235.869c-102.773,90.079 -313.59,370.744 -333.354,436.151" style="fill:none;stroke:#000;stroke-width:43.17px;"/><path d="M710.487,958.545c0,-0 -48.751,287.15 58.634,411.662c100.138,115.418 208.183,141.544 297.78,134.27c88.939,-7.274 195.005,-91.595 251.663,-194.948c60.61,-111.175 62.586,-424.271 -48.751,-531.263c98.82,-183.979 229.923,-337.283 343.236,-459.491c0,-0 -64.562,-91.958 -215.429,80.745c-150.207,172.763 -206.206,411.175 -206.206,411.175c55.998,34.189 79.056,78.683 90.256,132.634c0,0 -94.209,26.368 -138.349,112.266c-36.234,69.589 -21.082,202.89 -21.082,202.89c-41.504,39.038 -87.621,36.795 -135.713,8.244c-0,-0 2.635,104.567 148.23,83.654c-29.645,59.163 -102.113,90.079 -191.053,32.915c3.953,24.187 18.447,63.954 46.117,93.838c29.646,31.886 133.737,71.045 293.166,-113.114" style="fill:none;stroke:#000;stroke-width:43.17px;stroke-miterlimit:3.75;"/><path d="M893.635,1383.99l-372.885,19.038l7.906,114.873l73.128,-3.516l-14.494,-53.83l69.174,-3.152l-5.27,52.921l72.468,-2.608l-7.905,-115.417" style="fill:none;stroke:#000;stroke-width:43.17px;stroke-miterlimit:1.5;"/><path d="M1188.59,1368.45l182.161,-8.098c-0,-0 9.534,-171.907 110.827,-176.205c101.293,-4.299 148.326,68.515 106.888,121.848c-22.492,29.099 -77.581,67.789 -124.618,81.86c-38.901,11.794 -72.96,6.377 -78.831,-36.091c-13.262,-99.405 179.894,-52.863 205.527,-1.883c25.039,50.843 5.344,122.759 -94.559,113.807c-111.334,-10.014 -125.234,-103.336 -125.234,-103.336" style="fill:none;stroke:#000;stroke-width:41.4px;stroke-miterlimit:1.5;"/><path d="M1588.74,1194.2c-0,-0 32.878,-47.662 75.456,-32.767c41.198,14.411 42.391,58.127 3.908,79.353c-0,-0 73.813,7.124 69.435,69.104c-5.035,61.933 -68.398,68.963 -68.398,68.963c-0,-0 47.68,26.995 14.897,61.695c-34.073,36.064 -57.824,17.4 -78.513,2.347" style="fill:none;stroke:#000;stroke-width:43.17px;stroke-miterlimit:1.5;"/><path d="M918.011,1156.83c-0,0 3.293,-90.382 -34.917,-130.633c-38.211,-40.372 -95.527,-53.769 -88.939,28.491c7.906,98.505 123.856,102.142 123.856,102.142Z" style="fill:none;stroke:#000;stroke-width:43.17px;stroke-miterlimit:1.5;"/></g></svg>