<?xml version="1.0" encoding="UTF-8" standalone="no"?>
<!DOCTYPE svg PUBLIC "-//W3C//DTD SVG 1.1//EN" "http://www.w3.org/Graphics/SVG/1.1/DTD/svg11.dtd">
<svg width="100%" height="100%" viewBox="0 0 500 500" version="1.1" xmlns="http://www.w3.org/2000/svg" xmlns:xlink="http://www.w3.org/1999/xlink" xml:space="preserve" xmlns:serif="http://www.serif.com/" style="fill-rule:evenodd;clip-rule:evenodd;stroke-linejoin:round;stroke-miterlimit:2;">
    <path id="Siebdruck-weiss" d="M105.124,434.891C107.33,435.547 109.148,436.829 110.578,438.736C112.009,440.644 112.814,443.297 112.993,446.695C113.172,449.914 113.306,452.924 113.395,455.726C113.484,458.528 113.559,461.538 113.619,464.757C113.678,466.426 113.186,467.738 112.143,468.691C111.1,469.645 109.744,470.182 108.075,470.301C106.465,470.42 105.064,470.003 103.872,469.049C102.68,468.095 101.994,466.843 101.815,465.294C101.696,464.221 101.652,463.103 101.681,461.94C101.711,460.778 101.696,459.601 101.637,458.408C101.517,456.441 101.428,454.668 101.368,453.088C101.309,451.508 101.16,449.765 100.921,447.857C100.742,446.009 99.997,444.713 98.686,443.967C97.374,443.222 95.705,442.701 93.678,442.403C93.619,442.82 93.574,443.222 93.544,443.61C93.514,443.997 93.5,444.37 93.5,444.727C93.44,447.589 93.41,450.42 93.41,453.222L93.41,461.806C93.41,462.402 93.395,462.954 93.365,463.461C93.336,463.967 93.291,464.459 93.231,464.936C92.933,466.903 92.173,468.334 90.951,469.228C89.729,470.122 88.164,470.51 86.257,470.39C84.588,470.271 83.291,469.645 82.367,468.513C81.443,467.38 80.981,465.89 80.981,464.042C81.16,454.981 81.234,446.039 81.205,437.216C81.175,428.394 81.13,419.541 81.07,410.659L81.07,396.621C81.07,394.355 81.786,392.671 83.217,391.568C84.647,390.466 86.495,390.093 88.76,390.451C90.549,390.749 92.278,390.808 93.947,390.63C97.702,390.391 100.936,391.032 103.649,392.552C106.361,394.072 108.611,396.442 110.4,399.661C114.096,406.039 115.02,412.835 113.172,420.048C112.516,422.85 111.532,425.488 110.221,427.962C108.909,430.435 107.21,432.745 105.124,434.891ZM93.589,427.202C94.841,427.261 95.929,426.903 96.853,426.128C97.777,425.354 98.537,424.4 99.133,423.267C99.729,422.134 100.206,420.942 100.564,419.69C100.921,418.439 101.19,417.306 101.368,416.293C101.845,414.027 101.92,411.881 101.592,409.854C101.264,407.828 100.474,405.831 99.222,403.863C97.792,401.717 95.914,401.032 93.589,401.807L93.589,427.202ZM121.487,403.059C121.845,401.27 122.456,399.601 123.32,398.051C124.185,396.501 125.258,395.13 126.54,393.938C127.821,392.746 129.267,391.762 130.876,390.987C132.486,390.212 134.244,389.706 136.152,389.467C137.881,389.229 139.565,389.348 141.204,389.825C142.843,390.302 144.408,390.987 145.899,391.881C148.581,393.729 150.578,395.846 151.89,398.23C153.201,400.615 154.095,403.237 154.572,406.099C154.93,408.185 155.183,410.257 155.332,412.313C155.481,414.37 155.615,416.442 155.734,418.528C156.033,423.833 156.196,429.154 156.226,434.489C156.256,439.824 155.973,445.115 155.377,450.361C155.138,452.388 154.796,454.325 154.349,456.173C153.901,458.021 153.261,459.809 152.426,461.538C151.353,463.744 150.071,465.547 148.581,466.948C147.091,468.349 145.451,469.377 143.663,470.033C141.875,470.688 139.982,471.031 137.985,471.061C135.988,471.091 134.006,470.837 132.039,470.301C129.356,469.764 127.195,468.602 125.556,466.814C123.917,465.025 122.68,462.999 121.845,460.733C121.011,458.766 120.414,456.769 120.057,454.742C119.699,452.715 119.461,450.629 119.341,448.483C119.222,444.668 119.133,440.838 119.073,436.993C119.014,433.148 119.028,429.333 119.118,425.547C119.207,421.762 119.431,417.991 119.788,414.236C120.146,410.48 120.712,406.755 121.487,403.059ZM142.769,408.96C142.59,406.397 142.024,404.519 141.07,403.327C140.116,402.135 139.103,401.553 138.03,401.583C136.957,401.613 135.943,402.239 134.99,403.461C134.036,404.683 133.44,406.427 133.201,408.692C132.843,412.746 132.575,416.605 132.396,420.272C132.218,423.938 132.098,427.5 132.039,430.957C131.979,434.415 131.964,437.768 131.994,441.017C132.024,444.265 132.069,447.499 132.128,450.718C132.128,453.52 132.62,455.651 133.604,457.112C134.587,458.572 135.72,459.332 137.001,459.392C138.283,459.452 139.49,458.796 140.623,457.425C141.755,456.054 142.471,453.937 142.769,451.076C143.484,443.505 143.872,436.263 143.931,429.348C143.991,422.433 143.603,415.637 142.769,408.96ZM162.799,441.419C162.918,440.346 163.261,439.422 163.827,438.647C164.393,437.872 165.094,437.261 165.928,436.814C166.763,436.367 167.672,436.143 168.655,436.143C169.639,436.143 170.608,436.382 171.561,436.859C173.648,437.932 174.691,439.66 174.691,442.045L174.691,451.434C174.691,452.686 174.781,453.937 174.959,455.189C175.317,457.395 176.599,458.528 178.804,458.587C179.52,458.647 180.116,458.513 180.593,458.185C181.07,457.857 181.442,457.44 181.71,456.933C181.979,456.426 182.172,455.86 182.292,455.234C182.411,454.608 182.47,454.027 182.47,453.49C182.351,451.94 182.247,450.346 182.158,448.707C182.068,447.067 181.964,445.443 181.845,443.833C181.725,441.985 181.219,440.346 180.324,438.915C179.43,437.485 178.238,436.203 176.748,435.07C175.496,434.057 174.289,433.058 173.126,432.075C171.964,431.091 170.727,430.123 169.415,429.169C163.633,425.055 160.921,419.452 161.278,412.358C161.398,411.166 161.472,409.959 161.502,408.737C161.532,407.515 161.606,406.248 161.726,404.936C161.904,403.148 162.351,401.404 163.067,399.705C163.782,398.007 164.721,396.457 165.883,395.056C167.046,393.655 168.387,392.522 169.907,391.658C171.427,390.793 173.082,390.302 174.87,390.182C176.42,390.123 177.955,390.123 179.475,390.182C180.995,390.242 182.5,390.481 183.991,390.898C186.852,391.673 189.028,393.074 190.518,395.1C192.008,397.127 192.992,399.512 193.469,402.254C193.767,404.281 193.946,406.352 194.005,408.468C194.065,410.585 194.095,412.686 194.095,414.772C194.095,416.442 193.514,417.813 192.351,418.886C191.189,419.959 189.773,420.495 188.104,420.495C186.554,420.495 185.198,419.988 184.035,418.975C182.873,417.962 182.232,416.62 182.113,414.951C181.994,413.64 181.919,412.373 181.889,411.151C181.859,409.929 181.815,408.722 181.755,407.53C181.696,407.172 181.666,406.814 181.666,406.457C181.666,406.099 181.636,405.771 181.576,405.473C181.219,403.446 180.175,402.403 178.447,402.343C177.314,402.284 176.345,402.477 175.541,402.925C174.736,403.372 174.274,404.102 174.155,405.115C173.976,407.023 173.871,408.901 173.842,410.749C173.812,412.597 173.857,414.474 173.976,416.382C174.035,416.918 174.304,417.47 174.781,418.036C175.257,418.602 175.734,419.124 176.211,419.601C177.403,420.555 178.611,421.494 179.833,422.418C181.055,423.342 182.292,424.281 183.543,425.234C190.399,430.182 193.976,436.888 194.274,445.353C194.333,447.321 194.408,449.258 194.497,451.166C194.587,453.073 194.661,455.011 194.721,456.978C194.78,458.706 194.572,460.271 194.095,461.672C193.618,463.073 192.962,464.295 192.128,465.338C191.293,466.382 190.339,467.261 189.266,467.976C188.193,468.691 187.09,469.228 185.958,469.586C183.633,470.361 181.293,470.778 178.938,470.837C176.584,470.897 174.274,470.688 172.009,470.212C169.505,469.794 167.418,468.498 165.749,466.322C164.08,464.146 163.126,461.627 162.888,458.766C162.709,455.905 162.664,453.014 162.754,450.093C162.843,447.172 162.858,444.28 162.799,441.419ZM212.336,439.72C212.336,441.151 212.321,442.581 212.291,444.012C212.262,445.443 212.306,446.873 212.426,448.304C212.545,449.556 212.634,450.808 212.694,452.06C212.753,453.312 212.962,454.429 213.32,455.413C213.677,456.396 214.288,457.171 215.153,457.738C216.017,458.304 217.344,458.528 219.132,458.408C219.966,458.349 220.861,458.259 221.814,458.14C222.768,458.021 223.662,457.961 224.497,457.961C225.212,457.961 225.943,457.976 226.688,458.006C227.433,458.036 228.163,458.14 228.878,458.319C231.084,459.034 232.336,460.614 232.634,463.058C232.753,464.25 232.545,465.279 232.008,466.143C231.472,467.007 230.697,467.678 229.683,468.155C229.385,468.453 229.013,468.662 228.565,468.781C228.118,468.9 227.656,468.99 227.179,469.049C225.212,469.288 223.141,469.496 220.965,469.675C218.789,469.854 216.747,470.003 214.84,470.122C211.919,470.241 209.519,469.779 207.642,468.736C205.764,467.693 204.288,466.158 203.215,464.131C202.142,462.104 201.367,459.63 200.891,456.709C200.414,453.788 200.116,450.54 199.996,446.963C199.818,442.134 199.788,437.321 199.907,432.522C200.026,427.723 200.145,422.909 200.265,418.081C200.384,414.445 200.712,410.883 201.248,407.395C201.785,403.908 202.739,400.585 204.11,397.425C206.017,392.895 209.355,390.54 214.124,390.361C216.151,390.302 218.297,390.302 220.563,390.361C223.543,390.481 226.121,391.39 228.297,393.089C230.473,394.787 231.978,397.068 232.813,399.929C233.111,400.883 233.349,401.852 233.528,402.835C233.707,403.819 233.767,404.758 233.707,405.652C233.588,409.228 233.394,412.79 233.126,416.337C232.858,419.884 232.574,423.416 232.276,426.933C232.217,427.47 232.112,428.006 231.963,428.543C231.814,429.079 231.65,429.616 231.472,430.152C229.743,435.458 226.136,438.468 220.652,439.184C219.341,439.362 217.999,439.467 216.628,439.496C215.257,439.526 213.826,439.601 212.336,439.72ZM216.449,427.917C217.224,427.917 217.835,427.902 218.282,427.872C218.729,427.842 219.087,427.723 219.355,427.514C219.624,427.306 219.802,426.993 219.892,426.576C219.981,426.158 220.086,425.592 220.205,424.877C220.503,422.671 220.726,420.525 220.876,418.439C221.025,416.352 221.188,414.236 221.367,412.09C221.427,411.017 221.472,409.959 221.501,408.916C221.531,407.872 221.516,406.844 221.457,405.831C221.397,405.115 221.203,404.489 220.876,403.953C220.548,403.416 219.996,403.059 219.221,402.88C218.446,402.701 217.686,402.686 216.941,402.835C216.196,402.984 215.585,403.416 215.108,404.132C214.81,404.489 214.572,404.877 214.393,405.294C214.214,405.711 214.095,406.158 214.035,406.635C213.32,410.152 212.888,413.64 212.738,417.097C212.589,420.555 212.455,424.161 212.336,427.917L216.449,427.917ZM250.607,394.296C252.276,393.103 253.93,392.224 255.57,391.658C257.209,391.092 258.923,390.868 260.711,390.987C263.453,391.285 265.719,392.045 267.507,393.267C269.295,394.489 270.741,396.01 271.844,397.828C272.947,399.646 273.736,401.658 274.213,403.863C274.69,406.069 274.958,408.305 275.018,410.57C275.018,416.233 274.988,421.896 274.929,427.559L274.75,444.549C274.69,447.768 274.646,450.912 274.616,453.982C274.586,457.052 274.541,460.167 274.482,463.326L274.482,464.623C274.482,465.07 274.452,465.532 274.392,466.009C274.094,467.618 273.379,468.855 272.246,469.72C271.114,470.584 269.772,470.987 268.222,470.927C266.672,470.867 265.391,470.405 264.377,469.541C263.364,468.677 262.738,467.469 262.5,465.92C262.38,465.264 262.321,464.638 262.321,464.042L262.321,462.164C262.44,455.368 262.559,448.677 262.678,442.09C262.798,435.502 262.917,428.781 263.036,421.926C263.096,419.72 263.081,417.5 262.991,415.264C262.902,413.029 262.798,410.778 262.678,408.513C262.619,407.798 262.5,407.053 262.321,406.278C262.142,405.503 261.859,404.772 261.471,404.087C261.084,403.401 260.592,402.85 259.996,402.433C259.4,402.015 258.714,401.807 257.939,401.807C256.747,401.807 255.749,402.343 254.944,403.416C254.139,404.489 253.483,405.741 252.977,407.172C252.47,408.603 252.097,410.048 251.859,411.509C251.62,412.969 251.471,414.117 251.412,414.951C251.293,416.859 251.203,418.707 251.144,420.495C251.084,422.284 251.024,424.131 250.965,426.039C250.965,429.199 250.95,432.358 250.92,435.517C250.89,438.677 250.935,441.806 251.054,444.906C251.173,448.066 251.322,451.002 251.501,453.714C251.68,456.426 251.829,459.303 251.948,462.343C252.008,462.939 252.038,463.55 252.038,464.176C252.038,464.802 251.978,465.443 251.859,466.098C251.561,467.589 250.831,468.766 249.668,469.63C248.506,470.495 247.09,470.867 245.421,470.748C244.05,470.629 242.828,470.107 241.755,469.183C240.682,468.259 240.085,467.022 239.966,465.472C239.728,462.253 239.519,459.183 239.34,456.262C239.161,453.341 239.012,450.182 238.893,446.784C238.774,443.505 238.744,440.197 238.804,436.859C238.863,433.52 238.863,430.152 238.804,426.754C238.744,421.687 238.685,416.665 238.625,411.687C238.565,406.71 238.506,401.747 238.446,396.799L238.446,394.385C238.625,392.835 239.161,391.583 240.056,390.63C240.95,389.676 242.053,389.08 243.364,388.841C244.795,388.603 246.106,388.811 247.299,389.467C248.491,390.123 249.385,391.196 249.981,392.686C250.16,393.044 250.369,393.58 250.607,394.296ZM293.17,447.231C293.23,448.721 293.274,450.122 293.304,451.434C293.334,452.745 293.364,454.027 293.394,455.279L293.483,459.034C293.513,460.286 293.557,461.627 293.617,463.058C293.617,463.535 293.632,463.967 293.662,464.355C293.692,464.742 293.677,465.145 293.617,465.562C293.438,466.993 292.857,468.17 291.873,469.094C290.89,470.018 289.683,470.569 288.252,470.748C286.762,470.867 285.435,470.569 284.273,469.854C283.11,469.139 282.321,468.125 281.903,466.814C281.546,466.098 281.367,465.174 281.367,464.042C281.248,453.669 281.128,443.58 281.009,433.774C280.89,423.968 280.771,413.908 280.651,403.595C280.592,402.522 280.547,401.449 280.517,400.376C280.488,399.303 280.502,398.23 280.562,397.157C280.622,394.892 281.248,393.163 282.44,391.971C283.632,390.779 285.361,390.182 287.626,390.182C290.607,390.242 293.677,390.51 296.836,390.987C299.101,391.345 301.098,392.12 302.827,393.312C304.556,394.504 306.046,396.024 307.298,397.872C308.669,399.661 309.727,401.568 310.472,403.595C311.217,405.622 311.739,407.768 312.037,410.033C312.454,413.252 312.603,416.412 312.484,419.512C312.365,422.611 311.829,425.771 310.875,428.99C310.04,432.328 308.684,435.264 306.806,437.798C304.928,440.331 302.529,442.432 299.608,444.102C298.654,444.757 297.626,445.294 296.523,445.711C295.42,446.128 294.303,446.635 293.17,447.231ZM292.902,401.717C292.723,407.261 292.648,412.731 292.678,418.126C292.708,423.52 292.812,429.02 292.991,434.623C294.899,433.55 296.314,432.224 297.238,430.644C298.162,429.064 298.833,427.38 299.25,425.592C299.906,423.208 300.264,420.793 300.323,418.349C300.383,415.905 300.234,413.431 299.876,410.927C299.697,409.676 299.414,408.468 299.027,407.306C298.639,406.144 298.058,405.056 297.283,404.042C296.806,403.387 296.225,402.85 295.54,402.433C294.854,402.015 293.975,401.777 292.902,401.717ZM337.903,417.366C338.022,415.16 338.052,412.939 337.992,410.704C337.933,408.468 337.605,406.278 337.009,404.132C336.711,402.939 335.921,402.03 334.639,401.404C333.357,400.778 332.001,400.615 330.57,400.913C329.676,401.151 328.767,401.315 327.843,401.404C326.919,401.494 326.01,401.39 325.116,401.091C324.043,400.674 323.179,400.108 322.523,399.393C321.867,398.677 321.539,397.753 321.539,396.621C321.42,394.236 322.523,392.597 324.848,391.703C326.815,390.868 328.872,390.302 331.018,390.004C333.044,389.765 335.041,389.899 337.009,390.406C338.976,390.913 340.764,391.703 342.374,392.776C343.983,393.849 345.369,395.145 346.532,396.665C347.694,398.185 348.484,399.869 348.901,401.717C349.259,403.327 349.542,404.951 349.751,406.591C349.959,408.23 350.034,409.884 349.974,411.553C349.855,417.395 349.706,423.163 349.527,428.856C349.348,434.549 349.14,440.286 348.901,446.069C348.782,448.632 348.722,451.151 348.722,453.625C348.722,456.098 348.693,458.617 348.633,461.18C348.573,461.776 348.529,462.373 348.499,462.969C348.469,463.565 348.424,464.191 348.365,464.846C348.067,466.218 347.485,467.35 346.621,468.244C345.757,469.139 344.669,469.705 343.357,469.943C340.198,470.361 337.113,470.554 334.103,470.525C331.092,470.495 328.126,470.092 325.205,469.317C321.986,468.662 319.408,467.32 317.471,465.294C315.533,463.267 314.356,460.674 313.939,457.514C312.866,448.572 313.492,439.571 315.817,430.51C316.353,428.722 317.128,426.933 318.141,425.145C319.751,422.284 322.106,420.093 325.205,418.573C328.305,417.053 331.614,416.531 335.131,417.008C335.608,417.067 336.055,417.127 336.472,417.187C336.889,417.246 337.366,417.306 337.903,417.366ZM337.366,429.169C337.128,429.049 336.934,428.96 336.785,428.9C336.636,428.841 336.502,428.751 336.383,428.632C331.912,426.665 328.961,427.917 327.53,432.388C327.471,432.507 327.441,432.641 327.441,432.79C327.441,432.939 327.411,433.103 327.351,433.282C326.517,436.322 326.01,439.333 325.831,442.313C325.653,445.294 325.563,448.334 325.563,451.434C325.503,452.149 325.533,452.879 325.653,453.625C325.772,454.37 325.891,455.13 326.01,455.905C326.189,458.11 327.381,459.273 329.587,459.392C330.72,459.511 331.852,459.556 332.985,459.526C334.117,459.496 335.28,459.481 336.472,459.481C336.591,454.414 336.74,449.407 336.919,444.459C337.098,439.511 337.247,434.415 337.366,429.169ZM356.412,441.419C356.532,440.346 356.874,439.422 357.441,438.647C358.007,437.872 358.707,437.261 359.542,436.814C360.376,436.367 361.286,436.143 362.269,436.143C363.253,436.143 364.221,436.382 365.175,436.859C367.262,437.932 368.305,439.66 368.305,442.045L368.305,451.434C368.305,452.686 368.394,453.937 368.573,455.189C368.931,457.395 370.212,458.528 372.418,458.587C373.133,458.647 373.73,458.513 374.206,458.185C374.683,457.857 375.056,457.44 375.324,456.933C375.592,456.426 375.786,455.86 375.905,455.234C376.025,454.608 376.084,454.027 376.084,453.49C375.965,451.94 375.861,450.346 375.771,448.707C375.682,447.067 375.578,445.443 375.458,443.833C375.339,441.985 374.832,440.346 373.938,438.915C373.044,437.485 371.852,436.203 370.362,435.07C369.11,434.057 367.903,433.058 366.74,432.075C365.578,431.091 364.341,430.123 363.029,429.169C357.247,425.055 354.535,419.452 354.892,412.358C355.011,411.166 355.086,409.959 355.116,408.737C355.146,407.515 355.22,406.248 355.339,404.936C355.518,403.148 355.965,401.404 356.681,399.705C357.396,398.007 358.335,396.457 359.497,395.056C360.66,393.655 362.001,392.522 363.521,391.658C365.041,390.793 366.695,390.302 368.484,390.182C370.034,390.123 371.569,390.123 373.089,390.182C374.609,390.242 376.114,390.481 377.604,390.898C380.466,391.673 382.642,393.074 384.132,395.1C385.622,397.127 386.606,399.512 387.083,402.254C387.381,404.281 387.56,406.352 387.619,408.468C387.679,410.585 387.709,412.686 387.709,414.772C387.709,416.442 387.127,417.813 385.965,418.886C384.803,419.959 383.387,420.495 381.718,420.495C380.168,420.495 378.812,419.988 377.649,418.975C376.487,417.962 375.846,416.62 375.727,414.951C375.607,413.64 375.533,412.373 375.503,411.151C375.473,409.929 375.429,408.722 375.369,407.53C375.309,407.172 375.279,406.814 375.279,406.457C375.279,406.099 375.25,405.771 375.19,405.473C374.832,403.446 373.789,402.403 372.06,402.343C370.928,402.284 369.959,402.477 369.154,402.925C368.35,403.372 367.888,404.102 367.768,405.115C367.59,407.023 367.485,408.901 367.455,410.749C367.426,412.597 367.47,414.474 367.59,416.382C367.649,416.918 367.917,417.47 368.394,418.036C368.871,418.602 369.348,419.124 369.825,419.601C371.017,420.555 372.224,421.494 373.446,422.418C374.668,423.342 375.905,424.281 377.157,425.234C384.013,430.182 387.589,436.888 387.887,445.353C387.947,447.321 388.022,449.258 388.111,451.166C388.2,453.073 388.275,455.011 388.335,456.978C388.394,458.706 388.185,460.271 387.709,461.672C387.232,463.073 386.576,464.295 385.741,465.338C384.907,466.382 383.953,467.261 382.88,467.976C381.807,468.691 380.704,469.228 379.572,469.586C377.247,470.361 374.907,470.778 372.552,470.837C370.198,470.897 367.888,470.688 365.622,470.212C363.119,469.794 361.032,468.498 359.363,466.322C357.694,464.146 356.74,461.627 356.502,458.766C356.323,455.905 356.278,453.014 356.368,450.093C356.457,447.172 356.472,444.28 356.412,441.419ZM394.147,441.419C394.266,440.346 394.609,439.422 395.175,438.647C395.741,437.872 396.442,437.261 397.276,436.814C398.111,436.367 399.02,436.143 400.004,436.143C400.987,436.143 401.956,436.382 402.91,436.859C404.996,437.932 406.039,439.66 406.039,442.045L406.039,451.434C406.039,452.686 406.129,453.937 406.308,455.189C406.665,457.395 407.947,458.528 410.153,458.587C410.868,458.647 411.464,458.513 411.941,458.185C412.418,457.857 412.79,457.44 413.059,456.933C413.327,456.426 413.521,455.86 413.64,455.234C413.759,454.608 413.819,454.027 413.819,453.49C413.699,451.94 413.595,450.346 413.506,448.707C413.416,447.067 413.312,445.443 413.193,443.833C413.074,441.985 412.567,440.346 411.673,438.915C410.778,437.485 409.586,436.203 408.096,435.07C406.844,434.057 405.637,433.058 404.474,432.075C403.312,431.091 402.075,430.123 400.764,429.169C394.981,425.055 392.269,419.452 392.627,412.358C392.746,411.166 392.82,409.959 392.85,408.737C392.88,407.515 392.954,406.248 393.074,404.936C393.253,403.148 393.7,401.404 394.415,399.705C395.13,398.007 396.069,396.457 397.232,395.056C398.394,393.655 399.735,392.522 401.255,391.658C402.776,390.793 404.43,390.302 406.218,390.182C407.768,390.123 409.303,390.123 410.823,390.182C412.343,390.242 413.848,390.481 415.339,390.898C418.2,391.673 420.376,393.074 421.866,395.1C423.357,397.127 424.34,399.512 424.817,402.254C425.115,404.281 425.294,406.352 425.354,408.468C425.413,410.585 425.443,412.686 425.443,414.772C425.443,416.442 424.862,417.813 423.699,418.886C422.537,419.959 421.121,420.495 419.452,420.495C417.902,420.495 416.546,419.988 415.383,418.975C414.221,417.962 413.58,416.62 413.461,414.951C413.342,413.64 413.267,412.373 413.237,411.151C413.208,409.929 413.163,408.722 413.103,407.53C413.044,407.172 413.014,406.814 413.014,406.457C413.014,406.099 412.984,405.771 412.924,405.473C412.567,403.446 411.524,402.403 409.795,402.343C408.662,402.284 407.694,402.477 406.889,402.925C406.084,403.372 405.622,404.102 405.503,405.115C405.324,407.023 405.22,408.901 405.19,410.749C405.16,412.597 405.205,414.474 405.324,416.382C405.384,416.918 405.652,417.47 406.129,418.036C406.606,418.602 407.083,419.124 407.559,419.601C408.752,420.555 409.959,421.494 411.181,422.418C412.403,423.342 413.64,424.281 414.892,425.234C421.747,430.182 425.324,436.888 425.622,445.353C425.681,447.321 425.756,449.258 425.845,451.166C425.935,453.073 426.009,455.011 426.069,456.978C426.129,458.706 425.92,460.271 425.443,461.672C424.966,463.073 424.31,464.295 423.476,465.338C422.641,466.382 421.687,467.261 420.614,467.976C419.541,468.691 418.439,469.228 417.306,469.586C414.981,470.361 412.641,470.778 410.287,470.837C407.932,470.897 405.622,470.688 403.357,470.212C400.853,469.794 398.767,468.498 397.097,466.322C395.428,464.146 394.475,461.627 394.236,458.766C394.057,455.905 394.013,453.014 394.102,450.093C394.191,447.172 394.206,444.28 394.147,441.419ZM143.193,176.423C126.426,147.586 100.642,103.351 90.377,73.269C87.528,64.919 85.863,57.576 85.721,51.82C85.603,47.032 86.547,43.156 88.357,40.318C94.88,30.09 104.766,23.672 116.225,22.709C127.253,21.781 139.95,25.944 152.503,37.442C174.915,57.81 199.241,117.186 207.064,183.561C218.007,180.321 241.576,175.264 267.062,181.844C269.78,166.773 278.853,125.979 301.79,93.65C319.021,69.238 340.593,49.597 361.007,39.245C375.48,31.906 389.475,29.231 401.205,32.188C432.077,39.97 428.056,72.738 399.558,97.715C382.513,112.655 352.959,149.751 335.134,175.962C327.807,186.736 322.445,195.535 321.098,199.994C320.972,200.411 320.797,200.801 320.583,201.159C324.988,210.807 328.015,222.271 329.735,234.343C334.147,265.307 330.088,300.103 321.004,316.767L320.998,316.777C320.029,318.544 319.003,320.287 317.925,322.003C321.837,321.83 324.475,321.712 324.475,321.712C325.202,316.059 327.005,306.042 331.25,297.347C335.987,287.647 343.68,279.728 355.369,279.232C364.167,278.859 371.454,280.692 376.979,283.746C376.997,283.719 377.015,283.692 377.034,283.665C377.034,283.665 380.54,278.57 386.077,275.453C390.237,273.11 395.424,271.861 401.118,273.853C408.509,276.439 411.995,281.918 412.224,287.437C412.332,290.041 411.696,292.765 410.243,295.301C410.663,295.496 411.085,295.705 411.505,295.929C417.32,299.023 422.888,304.673 422.177,314.738C422.176,314.756 422.175,314.774 422.173,314.792C421.35,324.919 415.475,330.292 410.147,333.104C411.672,335.608 412.528,338.622 411.912,341.938C411.49,344.217 410.358,346.724 407.935,349.288C403.426,354.061 399.314,355.666 395.744,355.88C390.635,356.186 386.197,353.334 382.279,350.483C382.171,350.404 382.067,350.322 381.966,350.237C377.171,354.473 369.624,357.222 358.594,356.233L358.592,356.233C335.669,354.171 327.76,339.223 325.202,331.625L310.595,332.275C301.423,343.685 290.095,353.213 278.573,359.27C273.122,362.236 268.089,364.082 263.505,365.092C261.128,365.663 258.779,366.049 256.478,366.238L256.475,366.238C235.484,367.942 210.453,362.568 186.729,338.762L177.323,339.242L178.847,361.499C178.943,362.899 178.467,364.277 177.528,365.32C176.589,366.362 175.267,366.979 173.865,367.03L156.473,367.656C154.978,367.709 153.533,367.115 152.509,366.024C151.486,364.933 150.984,363.454 151.132,361.965C151.132,361.965 151.803,355.225 151.803,355.225L147.629,355.416L149.43,362.106C149.838,363.621 149.538,365.238 148.614,366.505C147.691,367.772 146.243,368.552 144.677,368.628L127.126,369.472C124.31,369.607 121.903,367.466 121.709,364.653L119.812,337.083C119.717,335.697 120.182,334.33 121.104,333.29C122.027,332.251 123.328,331.625 124.716,331.554L170.152,329.234C170.556,329.101 170.983,329.015 171.428,328.984C171.935,328.95 172.43,328.989 172.902,329.094L177.988,328.834C168.905,316.23 164.764,298.648 163.34,281.594C161.88,264.119 163.181,247.286 164.278,237.6L165.49,225.683L164.461,216.38L157.303,203.62L143.193,176.423ZM376.423,324.932C369.603,330.315 360.746,335.449 352.763,337.84C348.877,339.018 345.154,339.505 341.828,339.242C345.661,342.67 351.282,345.6 359.481,346.338C367.184,347.027 372.495,345.556 375.688,342.516C380.076,338.337 379.931,331.577 377.279,326.176C377.062,325.751 376.774,325.337 376.423,324.932ZM384.957,290.276C391.269,297.924 391.746,307.998 385.162,316.479C384.712,317.061 384.212,317.658 383.667,318.266C384.744,319.418 385.59,320.587 386.17,321.74C386.176,321.752 386.182,321.765 386.188,321.777C389.285,328.065 389.967,335.395 387.721,341.699C387.945,341.817 388.164,341.952 388.374,342.105C389.44,342.88 390.538,343.707 391.7,344.399C392.76,345.028 393.859,345.613 395.124,345.537C396.737,345.441 398.367,344.329 400.404,342.173C401.129,341.405 401.599,340.73 401.726,340.048C401.942,338.879 401.037,338.012 400.369,337.311C399.246,336.133 398.042,335.432 398.042,335.432C396.087,334.325 395.068,332.084 395.52,329.883C395.971,327.682 397.79,326.023 400.023,325.775C400.023,325.775 410.96,324.616 411.846,313.958C412.163,309.178 409.408,306.549 406.638,305.075C403.291,303.294 399.848,302.944 399.848,302.944C397.587,302.726 395.732,301.061 395.272,298.837C394.812,296.613 395.855,294.348 397.843,293.251C400.399,291.842 401.957,289.91 401.872,287.867C401.794,285.996 400.202,284.509 397.697,283.633C394.471,282.504 391.661,283.97 389.609,285.494C387.1,287.356 385.562,289.549 385.562,289.549C385.379,289.813 385.176,290.056 384.957,290.276ZM367.405,319.374C361.115,316.717 353.368,315.023 346.906,315.394C343.241,315.605 339.976,316.304 338.255,318.547C337.291,319.805 337.033,321.538 337.327,323.755C337.646,326.048 338.352,327.657 339.686,328.522C342.214,330.16 345.9,329.539 349.883,328.331C349.889,328.33 349.895,328.328 349.9,328.326C355.698,326.592 362.062,323.171 367.405,319.374ZM337.917,307.161C340.414,306.217 343.259,305.652 346.336,305.475C355.063,304.973 365.738,307.481 373.751,311.34C374.407,311.656 375.045,311.983 375.663,312.319C376.272,311.664 376.821,311.023 377.302,310.401L377.31,310.391C385.038,300.444 374.682,288.357 355.79,289.159C348.028,289.488 343.324,295.265 340.179,301.706C339.312,303.482 338.563,305.322 337.917,307.161Z" style="fill:white;stroke:white;stroke-width:6px;"/>
    <g id="Logo" transform="matrix(1,0,0,1,-18502.4,-1406.52)">
        <g id="white" transform="matrix(1,0,0,1,18502.4,1406.52)">
            <path d="M316.139,198.496C316.139,198.496 340.003,262.98 316.88,312.712C293.758,362.444 259.239,359.141 248.778,362.994C238.318,366.848 192.807,354.553 177.759,317.667C162.711,280.781 170.786,221.139 170.786,221.139L170.675,215.182C170.675,215.182 162.927,199.775 148.223,174.767C124.506,133.973 81.499,60.707 92.725,43.103C103.951,25.499 126.561,20.698 149.013,41.27C171.624,61.812 195.815,123.134 202.614,190.523C202.614,190.523 235.817,176.876 271.235,188.457C271.235,188.457 278.034,136.082 306.02,96.642C333.847,57.215 373.218,30.475 399.939,37.211C426.66,43.947 420.81,72.2 396.144,93.819C371.478,115.438 320.882,182.798 316.139,198.496ZM172.782,334.153L173.679,361.853L156.287,362.479L157.551,349.778L140.95,350.534L144.428,363.453L126.877,364.297L124.98,336.728L172.782,334.153Z" style="fill:white;"/>
        </g>
        <g id="pink" transform="matrix(0.0402939,0,0,0.0402939,18581.1,1427.83)">
            <path d="M4412.48,8432.4L4000.46,8414.74C4133.87,8407.68 4082.86,8351.96 4039.7,8324.49C3812.1,8178.13 3659.07,7779.06 3714,7761C3714,7761 4106.41,7880.69 4196.66,7883.04C4341.85,7887.36 4569.44,7856.36 4651.84,7712.74C4671.46,7678.21 4753.86,7543.22 4714.62,7544.01C4059.32,7557.35 3953.37,7178.29 3961.22,7008.38C3961.22,7008.38 4561.59,7180.26 4714.62,6972.28C4863.73,6763.91 4659.69,6088.21 4867.66,5758.98C4950.07,5628.71 5071.71,5521.58 5189.43,5420.34C5358.16,5279.87 5636.77,5225.32 5683.86,5020.49C5715.24,4881.58 5562.21,4653.98 5507.27,4590.81C5397.4,4461.71 5267.91,4346.74 5142.34,4232.16C5228.67,3961.79 5314.99,3690.25 5428.79,3427.74C5672.08,2855.62 6056.63,2399.65 6386.25,1851.08C6711.94,1301.72 7747.87,1036.45 7532.06,1464.56C7532.06,1464.56 7037.63,2032.36 7006.24,2066.11C6358.78,2839.92 6091.95,3303.74 5621.07,4106.98C5695.63,4183.5 5766.26,4260.41 5829.04,4344.38C5887.9,4426 5934.99,4630.44 5974.23,4721.87C6162.59,5139.78 6154.74,5564.74 6158.66,5974.01C6166.51,6767.05 5919.3,7476.12 5267.92,8016.84C5048.17,8198.92 4726.4,8406.89 4412.49,8432.4L4412.48,8432.4ZM3502.11,6353.07C3502.11,6353.07 2889.97,6387.6 2787.94,5861.39C2670.22,5226.1 3074.39,5328.91 3301.99,5569.06C3529.58,5809.21 3502.11,6353.07 3502.11,6353.07Z" style="fill:rgb(247,4,132);"/>
        </g>
        <g id="black" transform="matrix(1,0,0,1,18502.4,1406.52)">
            <path d="M314.273,190.015C317.032,184.775 321.294,177.887 326.566,170.136C344.853,143.247 375.243,105.25 392.729,89.924C401.799,81.974 408.187,73.112 410.912,64.868C412.657,59.59 412.897,54.637 410.916,50.609C408.963,46.637 404.874,43.798 398.672,42.234C389.025,39.802 377.596,42.45 365.693,48.486C346.545,58.196 326.414,76.731 310.252,99.629L310.245,99.639C282.972,138.075 276.372,189.124 276.372,189.124C276.173,190.653 275.303,192.015 273.999,192.838C272.694,193.661 271.091,193.86 269.625,193.381C236.055,182.404 204.583,195.314 204.583,195.314C203.07,195.936 201.353,195.807 199.95,194.966C198.547,194.124 197.624,192.67 197.46,191.043C190.818,125.219 167.615,65.169 145.53,45.104C145.524,45.099 145.519,45.094 145.514,45.089C135.617,36.022 125.788,32.302 117.094,33.033C108.829,33.728 101.797,38.512 97.093,45.888C96.208,47.276 96.021,49.225 96.079,51.565C96.2,56.499 97.741,62.767 100.182,69.923C110.378,99.802 136.239,143.848 152.695,172.153C167.503,197.338 175.303,212.855 175.303,212.855C176.588,215.409 175.557,218.526 173.002,219.81C170.448,221.095 167.331,220.064 166.047,217.51C166.047,217.51 158.354,202.217 143.757,177.392C143.753,177.385 143.749,177.378 143.744,177.37C126.996,148.563 100.755,103.683 90.377,73.269C87.528,64.919 85.863,57.576 85.721,51.82C85.603,47.032 86.547,43.156 88.357,40.318C94.88,30.09 104.766,23.672 116.225,22.709C127.253,21.781 139.95,25.944 152.503,37.442C174.915,57.81 199.241,117.186 207.064,183.561C218.007,180.321 241.576,175.264 267.062,181.844C269.78,166.773 278.853,125.979 301.79,93.65C319.021,69.238 340.593,49.597 361.007,39.245C375.48,31.906 389.475,29.231 401.205,32.188C432.077,39.97 428.056,72.738 399.558,97.715C382.513,112.655 352.959,149.751 335.134,175.962C327.807,186.736 322.445,195.535 321.098,199.994C320.972,200.411 320.797,200.801 320.583,201.159C324.988,210.807 328.015,222.271 329.735,234.343C334.147,265.307 330.088,300.103 321.004,316.767L320.998,316.777C320.029,318.544 319.003,320.287 317.925,322.003C321.837,321.83 324.475,321.712 324.475,321.712C325.202,316.059 327.005,306.042 331.25,297.347C335.987,287.647 343.68,279.728 355.369,279.232C364.167,278.859 371.454,280.692 376.979,283.746C376.997,283.719 377.015,283.692 377.034,283.665C377.034,283.665 380.54,278.57 386.077,275.453C390.237,273.11 395.424,271.861 401.118,273.853C408.509,276.439 411.995,281.918 412.224,287.437C412.332,290.041 411.696,292.765 410.243,295.301C410.663,295.496 411.085,295.705 411.505,295.929C417.32,299.023 422.888,304.673 422.177,314.738C422.176,314.756 422.175,314.774 422.173,314.792C421.35,324.919 415.475,330.292 410.147,333.104C411.672,335.608 412.528,338.622 411.912,341.938C411.49,344.217 410.358,346.724 407.935,349.288C403.426,354.061 399.314,355.666 395.744,355.88C390.635,356.186 386.197,353.334 382.279,350.483C382.171,350.404 382.067,350.322 381.966,350.237C377.171,354.473 369.624,357.222 358.594,356.233L358.592,356.233C335.669,354.171 327.76,339.223 325.202,331.625L310.595,332.275C301.423,343.685 290.095,353.213 278.573,359.27C273.122,362.236 268.089,364.082 263.505,365.092C261.128,365.663 258.779,366.049 256.478,366.238L256.475,366.238C235.484,367.942 210.453,362.568 186.729,338.762L177.323,339.242L178.847,361.499C178.943,362.899 178.467,364.277 177.528,365.32C176.589,366.362 175.267,366.979 173.865,367.03L156.473,367.656C154.978,367.709 153.533,367.115 152.509,366.024C151.486,364.933 150.984,363.454 151.132,361.965C151.132,361.965 151.803,355.225 151.803,355.225L147.629,355.416L149.43,362.106C149.838,363.621 149.538,365.238 148.614,366.505C147.691,367.772 146.243,368.552 144.677,368.628L127.126,369.472C124.31,369.607 121.903,367.466 121.709,364.653L119.812,337.083C119.717,335.697 120.182,334.33 121.104,333.29C122.027,332.251 123.328,331.625 124.716,331.554L170.152,329.234C170.556,329.101 170.983,329.015 171.428,328.984C171.935,328.95 172.43,328.989 172.902,329.094L177.988,328.834C168.905,316.23 164.764,298.648 163.34,281.594C161.087,254.624 165.41,229.184 165.41,229.184C165.888,226.365 168.565,224.465 171.384,224.943C174.203,225.422 176.103,228.099 175.624,230.918C175.624,230.918 171.523,255.098 173.664,280.732C175.036,297.152 178.856,314.266 188.507,325.461C189.314,326.39 190.122,327.294 190.933,328.173L214.208,326.985C217.064,326.839 219.5,329.039 219.646,331.894C219.792,334.75 217.592,337.186 214.736,337.332L201.284,338.019C210.917,345.972 220.661,350.829 230.09,353.49C225.019,346.304 222.247,338.156 221.376,332.827C221.046,330.808 221.936,328.783 223.646,327.661C225.357,326.538 227.568,326.527 229.29,327.634C238.465,333.531 246.735,335.123 253.532,333.476C256.357,332.792 258.893,331.547 261.091,329.875C251.961,329.434 245.756,326.631 241.5,323.249C231.793,315.533 231.587,304.145 231.587,304.145C231.54,302.261 232.52,300.499 234.147,299.545C235.773,298.592 237.79,298.598 239.411,299.56C248.048,304.688 256.372,305.707 263.951,299.837C263.323,291.373 262.167,265.635 269.794,250.967C278.259,234.5 293.71,226.341 301.479,223.123C298.765,213.482 293.71,205.381 283.24,198.988C281.33,197.822 280.385,195.561 280.896,193.382C280.896,193.382 294.657,134.883 331.519,92.486L331.527,92.477C351.34,69.796 365.873,65.108 375.066,65.476C386.3,65.926 391.372,73.529 391.372,73.529C392.775,75.529 392.591,78.237 390.931,80.028C364.671,108.349 334.372,143.679 311.102,185.956C312.205,187.228 313.262,188.583 314.273,190.015ZM305.033,322.577C307.563,319.123 309.875,315.514 311.91,311.803C320.279,296.445 323.543,264.335 319.478,235.804C316.834,217.249 311.165,200.129 301.166,190.519C299.49,188.909 299.092,186.38 300.191,184.333C323.052,141.772 353.022,105.971 379.582,77.049C374.112,74.508 361.523,73.889 339.334,99.288C309.348,133.781 295.38,179.432 291.885,192.265C304.438,201.036 309.924,212.102 312.673,225.346C313.227,228.013 311.62,230.653 308.997,231.388C308.997,231.388 288.571,237.094 279.005,255.711C279,255.719 278.996,255.727 278.992,255.735C270.832,271.407 274.485,301.451 274.485,301.451C274.669,303.075 274.077,304.69 272.887,305.81C264.57,313.633 255.615,315.804 246.265,313.589C246.766,314.123 247.324,314.643 247.947,315.138C252.35,318.637 259.663,320.68 271.605,318.964C273.514,318.69 275.417,319.499 276.544,321.063C277.672,322.628 277.837,324.689 276.973,326.413C272.734,334.873 265.392,341.264 255.971,343.546C249.922,345.011 242.936,344.792 235.316,342.125C236.845,345.181 238.844,348.277 241.354,350.989C244.071,353.908 250.141,356.815 259.008,355.476C262.538,354.858 266.152,353.732 269.774,352.169C277.29,348.778 285.946,342.749 295.709,332.937L285.483,333.391C282.744,333.513 280.421,331.388 280.299,328.649C280.178,325.91 282.302,323.587 285.042,323.465C285.042,323.465 295.084,323.019 305.033,322.577ZM384.957,290.276C391.269,297.924 391.746,307.998 385.162,316.479C384.712,317.061 384.212,317.658 383.667,318.266C384.744,319.418 385.59,320.587 386.17,321.74C386.176,321.752 386.182,321.765 386.188,321.777C389.285,328.065 389.967,335.395 387.721,341.699C387.945,341.817 388.164,341.952 388.374,342.105C389.44,342.88 390.538,343.707 391.7,344.399C392.76,345.028 393.859,345.613 395.124,345.537C396.737,345.441 398.367,344.329 400.404,342.173C401.129,341.405 401.599,340.73 401.726,340.048C401.942,338.879 401.037,338.012 400.369,337.311C399.246,336.133 398.042,335.432 398.042,335.432C396.087,334.325 395.068,332.084 395.52,329.883C395.971,327.682 397.79,326.023 400.023,325.775C400.023,325.775 410.96,324.616 411.846,313.958C412.163,309.178 409.408,306.549 406.638,305.075C403.291,303.294 399.848,302.944 399.848,302.944C397.587,302.726 395.732,301.061 395.272,298.837C394.812,296.613 395.855,294.348 397.843,293.251C400.399,291.842 401.957,289.91 401.872,287.867C401.794,285.996 400.202,284.509 397.697,283.633C394.471,282.504 391.661,283.97 389.609,285.494C387.1,287.356 385.562,289.549 385.562,289.549C385.379,289.813 385.176,290.056 384.957,290.276ZM367.405,319.374C361.115,316.717 353.368,315.023 346.906,315.394C343.241,315.605 339.976,316.304 338.255,318.547C337.291,319.805 337.033,321.538 337.327,323.755C337.646,326.048 338.352,327.657 339.686,328.522C342.214,330.16 345.9,329.539 349.883,328.331C349.889,328.33 349.895,328.328 349.9,328.326C355.698,326.592 362.062,323.171 367.405,319.374ZM376.423,324.932C369.603,330.315 360.746,335.449 352.763,337.84C348.877,339.018 345.154,339.505 341.828,339.242C345.661,342.67 351.282,345.6 359.481,346.338C367.184,347.027 372.495,345.556 375.688,342.516C380.076,338.337 379.931,331.577 377.279,326.176C377.062,325.751 376.774,325.337 376.423,324.932ZM337.917,307.161C340.414,306.217 343.259,305.652 346.336,305.475C355.063,304.973 365.738,307.481 373.751,311.34C374.407,311.656 375.045,311.983 375.663,312.319C376.272,311.664 376.821,311.023 377.302,310.401L377.31,310.391C385.038,300.444 374.682,288.357 355.79,289.159C348.028,289.488 343.324,295.265 340.179,301.706C339.312,303.482 338.563,305.322 337.917,307.161ZM166.974,339.771L130.51,341.633C130.51,341.633 131.697,358.879 131.697,358.879L137.753,358.588L135.947,351.881C135.539,350.365 135.841,348.745 136.767,347.478C137.694,346.21 139.145,345.431 140.714,345.359L157.316,344.603C158.818,344.534 160.277,345.122 161.311,346.214C162.346,347.306 162.855,348.794 162.706,350.291L162.029,357.088L168.145,356.868L166.974,339.771ZM105.124,434.891C107.33,435.547 109.148,436.829 110.578,438.736C112.009,440.644 112.814,443.297 112.993,446.695C113.172,449.914 113.306,452.924 113.395,455.726C113.484,458.528 113.559,461.538 113.619,464.757C113.678,466.426 113.186,467.738 112.143,468.691C111.1,469.645 109.744,470.182 108.075,470.301C106.465,470.42 105.064,470.003 103.872,469.049C102.68,468.095 101.994,466.843 101.815,465.294C101.696,464.221 101.652,463.103 101.681,461.94C101.711,460.778 101.696,459.601 101.637,458.408C101.517,456.441 101.428,454.668 101.368,453.088C101.309,451.508 101.16,449.765 100.921,447.857C100.742,446.009 99.997,444.713 98.686,443.967C97.374,443.222 95.705,442.701 93.678,442.403C93.619,442.82 93.574,443.222 93.544,443.61C93.514,443.997 93.5,444.37 93.5,444.727C93.44,447.589 93.41,450.42 93.41,453.222L93.41,461.806C93.41,462.402 93.395,462.954 93.365,463.461C93.336,463.967 93.291,464.459 93.231,464.936C92.933,466.903 92.173,468.334 90.951,469.228C89.729,470.122 88.164,470.51 86.257,470.39C84.588,470.271 83.291,469.645 82.367,468.513C81.443,467.38 80.981,465.89 80.981,464.042C81.16,454.981 81.234,446.039 81.205,437.216C81.175,428.394 81.13,419.541 81.07,410.659L81.07,396.621C81.07,394.355 81.786,392.671 83.217,391.568C84.647,390.466 86.495,390.093 88.76,390.451C90.549,390.749 92.278,390.808 93.947,390.63C97.702,390.391 100.936,391.032 103.649,392.552C106.361,394.072 108.611,396.442 110.4,399.661C114.096,406.039 115.02,412.835 113.172,420.048C112.516,422.85 111.532,425.488 110.221,427.962C108.909,430.435 107.21,432.745 105.124,434.891ZM93.589,427.202C94.841,427.261 95.929,426.903 96.853,426.128C97.777,425.354 98.537,424.4 99.133,423.267C99.729,422.134 100.206,420.942 100.564,419.69C100.921,418.439 101.19,417.306 101.368,416.293C101.845,414.027 101.92,411.881 101.592,409.854C101.264,407.828 100.474,405.831 99.222,403.863C97.792,401.717 95.914,401.032 93.589,401.807L93.589,427.202ZM121.487,403.059C121.845,401.27 122.456,399.601 123.32,398.051C124.185,396.501 125.258,395.13 126.54,393.938C127.821,392.746 129.267,391.762 130.876,390.987C132.486,390.212 134.244,389.706 136.152,389.467C137.881,389.229 139.565,389.348 141.204,389.825C142.843,390.302 144.408,390.987 145.899,391.881C148.581,393.729 150.578,395.846 151.89,398.23C153.201,400.615 154.095,403.237 154.572,406.099C154.93,408.185 155.183,410.257 155.332,412.313C155.481,414.37 155.615,416.442 155.734,418.528C156.033,423.833 156.196,429.154 156.226,434.489C156.256,439.824 155.973,445.115 155.377,450.361C155.138,452.388 154.796,454.325 154.349,456.173C153.901,458.021 153.261,459.809 152.426,461.538C151.353,463.744 150.071,465.547 148.581,466.948C147.091,468.349 145.451,469.377 143.663,470.033C141.875,470.688 139.982,471.031 137.985,471.061C135.988,471.091 134.006,470.837 132.039,470.301C129.356,469.764 127.195,468.602 125.556,466.814C123.917,465.025 122.68,462.999 121.845,460.733C121.011,458.766 120.414,456.769 120.057,454.742C119.699,452.715 119.461,450.629 119.341,448.483C119.222,444.668 119.133,440.838 119.073,436.993C119.014,433.148 119.028,429.333 119.118,425.547C119.207,421.762 119.431,417.991 119.788,414.236C120.146,410.48 120.712,406.755 121.487,403.059ZM142.769,408.96C142.59,406.397 142.024,404.519 141.07,403.327C140.116,402.135 139.103,401.553 138.03,401.583C136.957,401.613 135.943,402.239 134.99,403.461C134.036,404.683 133.44,406.427 133.201,408.692C132.843,412.746 132.575,416.605 132.396,420.272C132.218,423.938 132.098,427.5 132.039,430.957C131.979,434.415 131.964,437.768 131.994,441.017C132.024,444.265 132.069,447.499 132.128,450.718C132.128,453.52 132.62,455.651 133.604,457.112C134.587,458.572 135.72,459.332 137.001,459.392C138.283,459.452 139.49,458.796 140.623,457.425C141.755,456.054 142.471,453.937 142.769,451.076C143.484,443.505 143.872,436.263 143.931,429.348C143.991,422.433 143.603,415.637 142.769,408.96ZM162.799,441.419C162.918,440.346 163.261,439.422 163.827,438.647C164.393,437.872 165.094,437.261 165.928,436.814C166.763,436.367 167.672,436.143 168.655,436.143C169.639,436.143 170.608,436.382 171.561,436.859C173.648,437.932 174.691,439.66 174.691,442.045L174.691,451.434C174.691,452.686 174.781,453.937 174.959,455.189C175.317,457.395 176.599,458.528 178.804,458.587C179.52,458.647 180.116,458.513 180.593,458.185C181.07,457.857 181.442,457.44 181.71,456.933C181.979,456.426 182.172,455.86 182.292,455.234C182.411,454.608 182.47,454.027 182.47,453.49C182.351,451.94 182.247,450.346 182.158,448.707C182.068,447.067 181.964,445.443 181.845,443.833C181.725,441.985 181.219,440.346 180.324,438.915C179.43,437.485 178.238,436.203 176.748,435.07C175.496,434.057 174.289,433.058 173.126,432.075C171.964,431.091 170.727,430.123 169.415,429.169C163.633,425.055 160.921,419.452 161.278,412.358C161.398,411.166 161.472,409.959 161.502,408.737C161.532,407.515 161.606,406.248 161.726,404.936C161.904,403.148 162.351,401.404 163.067,399.705C163.782,398.007 164.721,396.457 165.883,395.056C167.046,393.655 168.387,392.522 169.907,391.658C171.427,390.793 173.082,390.302 174.87,390.182C176.42,390.123 177.955,390.123 179.475,390.182C180.995,390.242 182.5,390.481 183.991,390.898C186.852,391.673 189.028,393.074 190.518,395.1C192.008,397.127 192.992,399.512 193.469,402.254C193.767,404.281 193.946,406.352 194.005,408.468C194.065,410.585 194.095,412.686 194.095,414.772C194.095,416.442 193.514,417.813 192.351,418.886C191.189,419.959 189.773,420.495 188.104,420.495C186.554,420.495 185.198,419.988 184.035,418.975C182.873,417.962 182.232,416.62 182.113,414.951C181.994,413.64 181.919,412.373 181.889,411.151C181.859,409.929 181.815,408.722 181.755,407.53C181.696,407.172 181.666,406.814 181.666,406.457C181.666,406.099 181.636,405.771 181.576,405.473C181.219,403.446 180.175,402.403 178.447,402.343C177.314,402.284 176.345,402.477 175.541,402.925C174.736,403.372 174.274,404.102 174.155,405.115C173.976,407.023 173.871,408.901 173.842,410.749C173.812,412.597 173.857,414.474 173.976,416.382C174.035,416.918 174.304,417.47 174.781,418.036C175.257,418.602 175.734,419.124 176.211,419.601C177.403,420.555 178.611,421.494 179.833,422.418C181.055,423.342 182.292,424.281 183.543,425.234C190.399,430.182 193.976,436.888 194.274,445.353C194.333,447.321 194.408,449.258 194.497,451.166C194.587,453.073 194.661,455.011 194.721,456.978C194.78,458.706 194.572,460.271 194.095,461.672C193.618,463.073 192.962,464.295 192.128,465.338C191.293,466.382 190.339,467.261 189.266,467.976C188.193,468.691 187.09,469.228 185.958,469.586C183.633,470.361 181.293,470.778 178.938,470.837C176.584,470.897 174.274,470.688 172.009,470.212C169.505,469.794 167.418,468.498 165.749,466.322C164.08,464.146 163.126,461.627 162.888,458.766C162.709,455.905 162.664,453.014 162.754,450.093C162.843,447.172 162.858,444.28 162.799,441.419ZM212.336,439.72C212.336,441.151 212.321,442.581 212.291,444.012C212.262,445.443 212.306,446.873 212.426,448.304C212.545,449.556 212.634,450.808 212.694,452.06C212.753,453.312 212.962,454.429 213.32,455.413C213.677,456.396 214.288,457.171 215.153,457.738C216.017,458.304 217.344,458.528 219.132,458.408C219.966,458.349 220.861,458.259 221.814,458.14C222.768,458.021 223.662,457.961 224.497,457.961C225.212,457.961 225.943,457.976 226.688,458.006C227.433,458.036 228.163,458.14 228.878,458.319C231.084,459.034 232.336,460.614 232.634,463.058C232.753,464.25 232.545,465.279 232.008,466.143C231.472,467.007 230.697,467.678 229.683,468.155C229.385,468.453 229.013,468.662 228.565,468.781C228.118,468.9 227.656,468.99 227.179,469.049C225.212,469.288 223.141,469.496 220.965,469.675C218.789,469.854 216.747,470.003 214.84,470.122C211.919,470.241 209.519,469.779 207.642,468.736C205.764,467.693 204.288,466.158 203.215,464.131C202.142,462.104 201.367,459.63 200.891,456.709C200.414,453.788 200.116,450.54 199.996,446.963C199.818,442.134 199.788,437.321 199.907,432.522C200.026,427.723 200.145,422.909 200.265,418.081C200.384,414.445 200.712,410.883 201.248,407.395C201.785,403.908 202.739,400.585 204.11,397.425C206.017,392.895 209.355,390.54 214.124,390.361C216.151,390.302 218.297,390.302 220.563,390.361C223.543,390.481 226.121,391.39 228.297,393.089C230.473,394.787 231.978,397.068 232.813,399.929C233.111,400.883 233.349,401.852 233.528,402.835C233.707,403.819 233.767,404.758 233.707,405.652C233.588,409.228 233.394,412.79 233.126,416.337C232.858,419.884 232.574,423.416 232.276,426.933C232.217,427.47 232.112,428.006 231.963,428.543C231.814,429.079 231.65,429.616 231.472,430.152C229.743,435.458 226.136,438.468 220.652,439.184C219.341,439.362 217.999,439.467 216.628,439.496C215.257,439.526 213.826,439.601 212.336,439.72ZM216.449,427.917C217.224,427.917 217.835,427.902 218.282,427.872C218.729,427.842 219.087,427.723 219.355,427.514C219.624,427.306 219.802,426.993 219.892,426.576C219.981,426.158 220.086,425.592 220.205,424.877C220.503,422.671 220.726,420.525 220.876,418.439C221.025,416.352 221.188,414.236 221.367,412.09C221.427,411.017 221.472,409.959 221.501,408.916C221.531,407.872 221.516,406.844 221.457,405.831C221.397,405.115 221.203,404.489 220.876,403.953C220.548,403.416 219.996,403.059 219.221,402.88C218.446,402.701 217.686,402.686 216.941,402.835C216.196,402.984 215.585,403.416 215.108,404.132C214.81,404.489 214.572,404.877 214.393,405.294C214.214,405.711 214.095,406.158 214.035,406.635C213.32,410.152 212.888,413.64 212.738,417.097C212.589,420.555 212.455,424.161 212.336,427.917L216.449,427.917ZM250.607,394.296C252.276,393.103 253.93,392.224 255.57,391.658C257.209,391.092 258.923,390.868 260.711,390.987C263.453,391.285 265.719,392.045 267.507,393.267C269.295,394.489 270.741,396.01 271.844,397.828C272.947,399.646 273.736,401.658 274.213,403.863C274.69,406.069 274.958,408.305 275.018,410.57C275.018,416.233 274.988,421.896 274.929,427.559L274.75,444.549C274.69,447.768 274.646,450.912 274.616,453.982C274.586,457.052 274.541,460.167 274.482,463.326L274.482,464.623C274.482,465.07 274.452,465.532 274.392,466.009C274.094,467.618 273.379,468.855 272.246,469.72C271.114,470.584 269.772,470.987 268.222,470.927C266.672,470.867 265.391,470.405 264.377,469.541C263.364,468.677 262.738,467.469 262.5,465.92C262.38,465.264 262.321,464.638 262.321,464.042L262.321,462.164C262.44,455.368 262.559,448.677 262.678,442.09C262.798,435.502 262.917,428.781 263.036,421.926C263.096,419.72 263.081,417.5 262.991,415.264C262.902,413.029 262.798,410.778 262.678,408.513C262.619,407.798 262.5,407.053 262.321,406.278C262.142,405.503 261.859,404.772 261.471,404.087C261.084,403.401 260.592,402.85 259.996,402.433C259.4,402.015 258.714,401.807 257.939,401.807C256.747,401.807 255.749,402.343 254.944,403.416C254.139,404.489 253.483,405.741 252.977,407.172C252.47,408.603 252.097,410.048 251.859,411.509C251.62,412.969 251.471,414.117 251.412,414.951C251.293,416.859 251.203,418.707 251.144,420.495C251.084,422.284 251.024,424.131 250.965,426.039C250.965,429.199 250.95,432.358 250.92,435.517C250.89,438.677 250.935,441.806 251.054,444.906C251.173,448.066 251.322,451.002 251.501,453.714C251.68,456.426 251.829,459.303 251.948,462.343C252.008,462.939 252.038,463.55 252.038,464.176C252.038,464.802 251.978,465.443 251.859,466.098C251.561,467.589 250.831,468.766 249.668,469.63C248.506,470.495 247.09,470.867 245.421,470.748C244.05,470.629 242.828,470.107 241.755,469.183C240.682,468.259 240.085,467.022 239.966,465.472C239.728,462.253 239.519,459.183 239.34,456.262C239.161,453.341 239.012,450.182 238.893,446.784C238.774,443.505 238.744,440.197 238.804,436.859C238.863,433.52 238.863,430.152 238.804,426.754C238.744,421.687 238.685,416.665 238.625,411.687C238.565,406.71 238.506,401.747 238.446,396.799L238.446,394.385C238.625,392.835 239.161,391.583 240.056,390.63C240.95,389.676 242.053,389.08 243.364,388.841C244.795,388.603 246.106,388.811 247.299,389.467C248.491,390.123 249.385,391.196 249.981,392.686C250.16,393.044 250.369,393.58 250.607,394.296ZM293.17,447.231C293.23,448.721 293.274,450.122 293.304,451.434C293.334,452.745 293.364,454.027 293.394,455.279L293.483,459.034C293.513,460.286 293.557,461.627 293.617,463.058C293.617,463.535 293.632,463.967 293.662,464.355C293.692,464.742 293.677,465.145 293.617,465.562C293.438,466.993 292.857,468.17 291.873,469.094C290.89,470.018 289.683,470.569 288.252,470.748C286.762,470.867 285.435,470.569 284.273,469.854C283.11,469.139 282.321,468.125 281.903,466.814C281.546,466.098 281.367,465.174 281.367,464.042C281.248,453.669 281.128,443.58 281.009,433.774C280.89,423.968 280.771,413.908 280.651,403.595C280.592,402.522 280.547,401.449 280.517,400.376C280.488,399.303 280.502,398.23 280.562,397.157C280.622,394.892 281.248,393.163 282.44,391.971C283.632,390.779 285.361,390.182 287.626,390.182C290.607,390.242 293.677,390.51 296.836,390.987C299.101,391.345 301.098,392.12 302.827,393.312C304.556,394.504 306.046,396.024 307.298,397.872C308.669,399.661 309.727,401.568 310.472,403.595C311.217,405.622 311.739,407.768 312.037,410.033C312.454,413.252 312.603,416.412 312.484,419.512C312.365,422.611 311.829,425.771 310.875,428.99C310.04,432.328 308.684,435.264 306.806,437.798C304.928,440.331 302.529,442.432 299.608,444.102C298.654,444.757 297.626,445.294 296.523,445.711C295.42,446.128 294.303,446.635 293.17,447.231ZM292.902,401.717C292.723,407.261 292.648,412.731 292.678,418.126C292.708,423.52 292.812,429.02 292.991,434.623C294.899,433.55 296.314,432.224 297.238,430.644C298.162,429.064 298.833,427.38 299.25,425.592C299.906,423.208 300.264,420.793 300.323,418.349C300.383,415.905 300.234,413.431 299.876,410.927C299.697,409.676 299.414,408.468 299.027,407.306C298.639,406.144 298.058,405.056 297.283,404.042C296.806,403.387 296.225,402.85 295.54,402.433C294.854,402.015 293.975,401.777 292.902,401.717ZM337.903,417.366C338.022,415.16 338.052,412.939 337.992,410.704C337.933,408.468 337.605,406.278 337.009,404.132C336.711,402.939 335.921,402.03 334.639,401.404C333.357,400.778 332.001,400.615 330.57,400.913C329.676,401.151 328.767,401.315 327.843,401.404C326.919,401.494 326.01,401.39 325.116,401.091C324.043,400.674 323.179,400.108 322.523,399.393C321.867,398.677 321.539,397.753 321.539,396.621C321.42,394.236 322.523,392.597 324.848,391.703C326.815,390.868 328.872,390.302 331.018,390.004C333.044,389.765 335.041,389.899 337.009,390.406C338.976,390.913 340.764,391.703 342.374,392.776C343.983,393.849 345.369,395.145 346.532,396.665C347.694,398.185 348.484,399.869 348.901,401.717C349.259,403.327 349.542,404.951 349.751,406.591C349.959,408.23 350.034,409.884 349.974,411.553C349.855,417.395 349.706,423.163 349.527,428.856C349.348,434.549 349.14,440.286 348.901,446.069C348.782,448.632 348.722,451.151 348.722,453.625C348.722,456.098 348.693,458.617 348.633,461.18C348.573,461.776 348.529,462.373 348.499,462.969C348.469,463.565 348.424,464.191 348.365,464.846C348.067,466.218 347.485,467.35 346.621,468.244C345.757,469.139 344.669,469.705 343.357,469.943C340.198,470.361 337.113,470.554 334.103,470.525C331.092,470.495 328.126,470.092 325.205,469.317C321.986,468.662 319.408,467.32 317.471,465.294C315.533,463.267 314.356,460.674 313.939,457.514C312.866,448.572 313.492,439.571 315.817,430.51C316.353,428.722 317.128,426.933 318.141,425.145C319.751,422.284 322.106,420.093 325.205,418.573C328.305,417.053 331.614,416.531 335.131,417.008C335.608,417.067 336.055,417.127 336.472,417.187C336.889,417.246 337.366,417.306 337.903,417.366ZM337.366,429.169C337.128,429.049 336.934,428.96 336.785,428.9C336.636,428.841 336.502,428.751 336.383,428.632C331.912,426.665 328.961,427.917 327.53,432.388C327.471,432.507 327.441,432.641 327.441,432.79C327.441,432.939 327.411,433.103 327.351,433.282C326.517,436.322 326.01,439.333 325.831,442.313C325.653,445.294 325.563,448.334 325.563,451.434C325.503,452.149 325.533,452.879 325.653,453.625C325.772,454.37 325.891,455.13 326.01,455.905C326.189,458.11 327.381,459.273 329.587,459.392C330.72,459.511 331.852,459.556 332.985,459.526C334.117,459.496 335.28,459.481 336.472,459.481C336.591,454.414 336.74,449.407 336.919,444.459C337.098,439.511 337.247,434.415 337.366,429.169ZM356.412,441.419C356.532,440.346 356.874,439.422 357.441,438.647C358.007,437.872 358.707,437.261 359.542,436.814C360.376,436.367 361.286,436.143 362.269,436.143C363.253,436.143 364.221,436.382 365.175,436.859C367.262,437.932 368.305,439.66 368.305,442.045L368.305,451.434C368.305,452.686 368.394,453.937 368.573,455.189C368.931,457.395 370.212,458.528 372.418,458.587C373.133,458.647 373.73,458.513 374.206,458.185C374.683,457.857 375.056,457.44 375.324,456.933C375.592,456.426 375.786,455.86 375.905,455.234C376.025,454.608 376.084,454.027 376.084,453.49C375.965,451.94 375.861,450.346 375.771,448.707C375.682,447.067 375.578,445.443 375.458,443.833C375.339,441.985 374.832,440.346 373.938,438.915C373.044,437.485 371.852,436.203 370.362,435.07C369.11,434.057 367.903,433.058 366.74,432.075C365.578,431.091 364.341,430.123 363.029,429.169C357.247,425.055 354.535,419.452 354.892,412.358C355.011,411.166 355.086,409.959 355.116,408.737C355.146,407.515 355.22,406.248 355.339,404.936C355.518,403.148 355.965,401.404 356.681,399.705C357.396,398.007 358.335,396.457 359.497,395.056C360.66,393.655 362.001,392.522 363.521,391.658C365.041,390.793 366.695,390.302 368.484,390.182C370.034,390.123 371.569,390.123 373.089,390.182C374.609,390.242 376.114,390.481 377.604,390.898C380.466,391.673 382.642,393.074 384.132,395.1C385.622,397.127 386.606,399.512 387.083,402.254C387.381,404.281 387.56,406.352 387.619,408.468C387.679,410.585 387.709,412.686 387.709,414.772C387.709,416.442 387.127,417.813 385.965,418.886C384.803,419.959 383.387,420.495 381.718,420.495C380.168,420.495 378.812,419.988 377.649,418.975C376.487,417.962 375.846,416.62 375.727,414.951C375.607,413.64 375.533,412.373 375.503,411.151C375.473,409.929 375.429,408.722 375.369,407.53C375.309,407.172 375.279,406.814 375.279,406.457C375.279,406.099 375.25,405.771 375.19,405.473C374.832,403.446 373.789,402.403 372.06,402.343C370.928,402.284 369.959,402.477 369.154,402.925C368.35,403.372 367.888,404.102 367.768,405.115C367.59,407.023 367.485,408.901 367.455,410.749C367.426,412.597 367.47,414.474 367.59,416.382C367.649,416.918 367.917,417.47 368.394,418.036C368.871,418.602 369.348,419.124 369.825,419.601C371.017,420.555 372.224,421.494 373.446,422.418C374.668,423.342 375.905,424.281 377.157,425.234C384.013,430.182 387.589,436.888 387.887,445.353C387.947,447.321 388.022,449.258 388.111,451.166C388.2,453.073 388.275,455.011 388.335,456.978C388.394,458.706 388.185,460.271 387.709,461.672C387.232,463.073 386.576,464.295 385.741,465.338C384.907,466.382 383.953,467.261 382.88,467.976C381.807,468.691 380.704,469.228 379.572,469.586C377.247,470.361 374.907,470.778 372.552,470.837C370.198,470.897 367.888,470.688 365.622,470.212C363.119,469.794 361.032,468.498 359.363,466.322C357.694,464.146 356.74,461.627 356.502,458.766C356.323,455.905 356.278,453.014 356.368,450.093C356.457,447.172 356.472,444.28 356.412,441.419ZM394.147,441.419C394.266,440.346 394.609,439.422 395.175,438.647C395.741,437.872 396.442,437.261 397.276,436.814C398.111,436.367 399.02,436.143 400.004,436.143C400.987,436.143 401.956,436.382 402.91,436.859C404.996,437.932 406.039,439.66 406.039,442.045L406.039,451.434C406.039,452.686 406.129,453.937 406.308,455.189C406.665,457.395 407.947,458.528 410.153,458.587C410.868,458.647 411.464,458.513 411.941,458.185C412.418,457.857 412.79,457.44 413.059,456.933C413.327,456.426 413.521,455.86 413.64,455.234C413.759,454.608 413.819,454.027 413.819,453.49C413.699,451.94 413.595,450.346 413.506,448.707C413.416,447.067 413.312,445.443 413.193,443.833C413.074,441.985 412.567,440.346 411.673,438.915C410.778,437.485 409.586,436.203 408.096,435.07C406.844,434.057 405.637,433.058 404.474,432.075C403.312,431.091 402.075,430.123 400.764,429.169C394.981,425.055 392.269,419.452 392.627,412.358C392.746,411.166 392.82,409.959 392.85,408.737C392.88,407.515 392.954,406.248 393.074,404.936C393.253,403.148 393.7,401.404 394.415,399.705C395.13,398.007 396.069,396.457 397.232,395.056C398.394,393.655 399.735,392.522 401.255,391.658C402.776,390.793 404.43,390.302 406.218,390.182C407.768,390.123 409.303,390.123 410.823,390.182C412.343,390.242 413.848,390.481 415.339,390.898C418.2,391.673 420.376,393.074 421.866,395.1C423.357,397.127 424.34,399.512 424.817,402.254C425.115,404.281 425.294,406.352 425.354,408.468C425.413,410.585 425.443,412.686 425.443,414.772C425.443,416.442 424.862,417.813 423.699,418.886C422.537,419.959 421.121,420.495 419.452,420.495C417.902,420.495 416.546,419.988 415.383,418.975C414.221,417.962 413.58,416.62 413.461,414.951C413.342,413.64 413.267,412.373 413.237,411.151C413.208,409.929 413.163,408.722 413.103,407.53C413.044,407.172 413.014,406.814 413.014,406.457C413.014,406.099 412.984,405.771 412.924,405.473C412.567,403.446 411.524,402.403 409.795,402.343C408.662,402.284 407.694,402.477 406.889,402.925C406.084,403.372 405.622,404.102 405.503,405.115C405.324,407.023 405.22,408.901 405.19,410.749C405.16,412.597 405.205,414.474 405.324,416.382C405.384,416.918 405.652,417.47 406.129,418.036C406.606,418.602 407.083,419.124 407.559,419.601C408.752,420.555 409.959,421.494 411.181,422.418C412.403,423.342 413.64,424.281 414.892,425.234C421.747,430.182 425.324,436.888 425.622,445.353C425.681,447.321 425.756,449.258 425.845,451.166C425.935,453.073 426.009,455.011 426.069,456.978C426.129,458.706 425.92,460.271 425.443,461.672C424.966,463.073 424.31,464.295 423.476,465.338C422.641,466.382 421.687,467.261 420.614,467.976C419.541,468.691 418.439,469.228 417.306,469.586C414.981,470.361 412.641,470.778 410.287,470.837C407.932,470.897 405.622,470.688 403.357,470.212C400.853,469.794 398.767,468.498 397.097,466.322C395.428,464.146 394.475,461.627 394.236,458.766C394.057,455.905 394.013,453.014 394.102,450.093C394.191,447.172 394.206,444.28 394.147,441.419ZM220.16,282.816C220.16,282.816 212.252,282.591 204.081,278.987C195.432,275.172 186.574,267.748 185.433,253.538C184.555,242.565 188.173,237.062 192.343,234.831C195.243,233.279 198.815,233.018 202.639,234.136C206.943,235.394 211.711,238.507 215.702,242.723C219.988,247.239 222.558,253.937 223.923,260.429C225.813,269.411 225.5,277.827 225.5,277.827C225.396,280.676 223.01,282.906 220.16,282.816ZM215.001,271.678C214.829,269.085 214.48,265.869 213.785,262.562C212.813,257.943 211.235,253.065 208.186,249.853L208.18,249.848C205.952,247.493 203.417,245.574 200.956,244.524C199.562,243.929 198.263,243.413 197.231,243.966C196.524,244.344 196.259,245.248 195.994,246.455C195.632,248.104 195.558,250.172 195.761,252.71C196.518,262.141 202.522,266.975 208.262,269.507C210.649,270.56 213.004,271.24 215.001,271.678Z"/>
        </g>
    </g>
</svg>
