<?xml version="1.0" encoding="UTF-8" standalone="no"?>
<!DOCTYPE svg PUBLIC "-//W3C//DTD SVG 1.1//EN" "http://www.w3.org/Graphics/SVG/1.1/DTD/svg11.dtd">
<svg width="100%" height="100%" viewBox="0 0 500 500" version="1.1" xmlns="http://www.w3.org/2000/svg" xmlns:xlink="http://www.w3.org/1999/xlink" xml:space="preserve" xmlns:serif="http://www.serif.com/" style="fill-rule:evenodd;clip-rule:evenodd;stroke-linejoin:round;stroke-miterlimit:2;">
    <g id="Siebdruck-weiss" transform="matrix(1.37628,0,0,1.37628,-100.283,-17.0017)">
        <path d="M143.193,176.423C126.426,147.586 100.642,103.351 90.377,73.269C87.528,64.919 85.863,57.576 85.721,51.82C85.603,47.032 86.547,43.156 88.357,40.318C94.88,30.09 104.766,23.672 116.225,22.709C127.253,21.781 139.95,25.944 152.503,37.442C174.915,57.81 199.241,117.186 207.064,183.561C218.007,180.321 241.576,175.264 267.062,181.844C269.78,166.773 278.853,125.979 301.79,93.65C319.021,69.238 340.593,49.597 361.007,39.245C375.48,31.906 389.475,29.231 401.205,32.188C432.077,39.97 428.056,72.738 399.558,97.715C382.513,112.655 352.959,149.751 335.134,175.962C327.807,186.736 322.445,195.535 321.098,199.994C320.972,200.411 320.797,200.801 320.583,201.159C324.988,210.807 328.015,222.271 329.735,234.343C334.147,265.307 330.088,300.103 321.004,316.767L320.998,316.777C320.029,318.544 319.003,320.287 317.925,322.003C321.837,321.83 324.475,321.712 324.475,321.712C325.202,316.059 327.005,306.042 331.25,297.347C335.987,287.647 343.68,279.728 355.369,279.232C364.167,278.859 371.454,280.692 376.979,283.746C376.997,283.719 377.015,283.692 377.034,283.665C377.034,283.665 380.54,278.57 386.077,275.453C390.237,273.11 395.424,271.861 401.118,273.853C408.509,276.439 411.995,281.918 412.224,287.437C412.332,290.041 411.696,292.765 410.243,295.301C410.663,295.496 411.085,295.705 411.505,295.929C417.32,299.023 422.888,304.673 422.177,314.738C422.176,314.756 422.175,314.774 422.173,314.792C421.35,324.919 415.475,330.292 410.147,333.104C411.672,335.608 412.528,338.622 411.912,341.938C411.49,344.217 410.358,346.724 407.935,349.288C403.426,354.061 399.314,355.666 395.744,355.88C390.635,356.186 386.197,353.334 382.279,350.483C382.171,350.404 382.067,350.322 381.966,350.237C377.171,354.473 369.624,357.222 358.594,356.233L358.592,356.233C335.669,354.171 327.76,339.223 325.202,331.625L310.595,332.275C301.423,343.685 290.095,353.213 278.573,359.27C273.122,362.236 268.089,364.082 263.505,365.092C261.128,365.663 258.779,366.049 256.478,366.238L256.475,366.238C235.484,367.942 210.453,362.568 186.729,338.762L177.323,339.242L178.847,361.499C178.943,362.899 178.467,364.277 177.528,365.32C176.589,366.362 175.267,366.979 173.865,367.03L156.473,367.656C154.978,367.709 153.533,367.115 152.509,366.024C151.486,364.933 150.984,363.454 151.132,361.965C151.132,361.965 151.803,355.225 151.803,355.225L147.629,355.416L149.43,362.106C149.838,363.621 149.538,365.238 148.614,366.505C147.691,367.772 146.243,368.552 144.677,368.628L127.126,369.472C124.31,369.607 121.903,367.466 121.709,364.653L119.812,337.083C119.717,335.697 120.182,334.33 121.104,333.29C122.027,332.251 123.328,331.625 124.716,331.554L170.152,329.234C170.556,329.101 170.983,329.015 171.428,328.984C171.935,328.95 172.43,328.989 172.902,329.094L177.988,328.834C168.905,316.23 164.764,298.648 163.34,281.594C161.88,264.119 163.181,247.286 164.278,237.6L165.49,225.683L164.461,216.38L157.303,203.62L143.193,176.423ZM376.423,324.932C369.603,330.315 360.746,335.449 352.763,337.84C348.877,339.018 345.154,339.505 341.828,339.242C345.661,342.67 351.282,345.6 359.481,346.338C367.184,347.027 372.495,345.556 375.688,342.516C380.076,338.337 379.931,331.577 377.279,326.176C377.062,325.751 376.774,325.337 376.423,324.932ZM384.957,290.276C391.269,297.924 391.746,307.998 385.162,316.479C384.712,317.061 384.212,317.658 383.667,318.266C384.744,319.418 385.59,320.587 386.17,321.74C386.176,321.752 386.182,321.765 386.188,321.777C389.285,328.065 389.967,335.395 387.721,341.699C387.945,341.817 388.164,341.952 388.374,342.105C389.44,342.88 390.538,343.707 391.7,344.399C392.76,345.028 393.859,345.613 395.124,345.537C396.737,345.441 398.367,344.329 400.404,342.173C401.129,341.405 401.599,340.73 401.726,340.048C401.942,338.879 401.037,338.012 400.369,337.311C399.246,336.133 398.042,335.432 398.042,335.432C396.087,334.325 395.068,332.084 395.52,329.883C395.971,327.682 397.79,326.023 400.023,325.775C400.023,325.775 410.96,324.616 411.846,313.958C412.163,309.178 409.408,306.549 406.638,305.075C403.291,303.294 399.848,302.944 399.848,302.944C397.587,302.726 395.732,301.061 395.272,298.837C394.812,296.613 395.855,294.348 397.843,293.251C400.399,291.842 401.957,289.91 401.872,287.867C401.794,285.996 400.202,284.509 397.697,283.633C394.471,282.504 391.661,283.97 389.609,285.494C387.1,287.356 385.562,289.549 385.562,289.549C385.379,289.813 385.176,290.056 384.957,290.276ZM367.405,319.374C361.115,316.717 353.368,315.023 346.906,315.394C343.241,315.605 339.976,316.304 338.255,318.547C337.291,319.805 337.033,321.538 337.327,323.755C337.646,326.048 338.352,327.657 339.686,328.522C342.214,330.16 345.9,329.539 349.883,328.331C349.889,328.33 349.895,328.328 349.9,328.326C355.698,326.592 362.062,323.171 367.405,319.374ZM337.917,307.161C340.414,306.217 343.259,305.652 346.336,305.475C355.063,304.973 365.738,307.481 373.751,311.34C374.407,311.656 375.045,311.983 375.663,312.319C376.272,311.664 376.821,311.023 377.302,310.401L377.31,310.391C385.038,300.444 374.682,288.357 355.79,289.159C348.028,289.488 343.324,295.265 340.179,301.706C339.312,303.482 338.563,305.322 337.917,307.161Z" style="fill:white;stroke:white;stroke-width:7.27px;"/>
    </g>
    <g id="Logo" transform="matrix(1,0,0,1,-18502.4,-1406.52)">
        <g id="white" transform="matrix(1.37628,0,0,1.37628,18402.1,1389.52)">
            <path d="M316.139,198.496C316.139,198.496 340.003,262.98 316.88,312.712C293.758,362.444 259.239,359.141 248.778,362.994C238.318,366.848 192.807,354.553 177.759,317.667C162.711,280.781 170.786,221.139 170.786,221.139L170.675,215.182C170.675,215.182 162.927,199.775 148.223,174.767C124.506,133.973 81.499,60.707 92.725,43.103C103.951,25.499 126.561,20.698 149.013,41.27C171.624,61.812 195.815,123.134 202.614,190.523C202.614,190.523 235.817,176.876 271.235,188.457C271.235,188.457 278.034,136.082 306.02,96.642C333.847,57.215 373.218,30.475 399.939,37.211C426.66,43.947 420.81,72.2 396.144,93.819C371.478,115.438 320.882,182.798 316.139,198.496ZM172.782,334.153L173.679,361.853L156.287,362.479L157.551,349.778L140.95,350.534L144.428,363.453L126.877,364.297L124.98,336.728L172.782,334.153Z" style="fill:white;"/>
        </g>
        <g id="pink" transform="matrix(0.0554558,0,0,0.0554558,18510.4,1418.84)">
            <path d="M4412.48,8432.4L4000.46,8414.74C4133.87,8407.68 4082.86,8351.96 4039.7,8324.49C3812.1,8178.13 3659.07,7779.06 3714,7761C3714,7761 4106.41,7880.69 4196.66,7883.04C4341.85,7887.36 4569.44,7856.36 4651.84,7712.74C4671.46,7678.21 4753.86,7543.22 4714.62,7544.01C4059.32,7557.35 3953.37,7178.29 3961.22,7008.38C3961.22,7008.38 4561.59,7180.26 4714.62,6972.28C4863.73,6763.91 4659.69,6088.21 4867.66,5758.98C4950.07,5628.71 5071.71,5521.58 5189.43,5420.34C5358.16,5279.87 5636.77,5225.32 5683.86,5020.49C5715.24,4881.58 5562.21,4653.98 5507.27,4590.81C5397.4,4461.71 5267.91,4346.74 5142.34,4232.16C5228.67,3961.79 5314.99,3690.25 5428.79,3427.74C5672.08,2855.62 6056.63,2399.65 6386.25,1851.08C6711.94,1301.72 7747.87,1036.45 7532.06,1464.56C7532.06,1464.56 7037.63,2032.36 7006.24,2066.11C6358.78,2839.92 6091.95,3303.74 5621.07,4106.98C5695.63,4183.5 5766.26,4260.41 5829.04,4344.38C5887.9,4426 5934.99,4630.44 5974.23,4721.87C6162.59,5139.78 6154.74,5564.74 6158.66,5974.01C6166.51,6767.05 5919.3,7476.12 5267.92,8016.84C5048.17,8198.92 4726.4,8406.89 4412.49,8432.4L4412.48,8432.4ZM3502.11,6353.07C3502.11,6353.07 2889.97,6387.6 2787.94,5861.39C2670.22,5226.1 3074.39,5328.91 3301.99,5569.06C3529.58,5809.21 3502.11,6353.07 3502.11,6353.07Z" style="fill:rgb(247,4,132);"/>
        </g>
        <g id="black" transform="matrix(1.37628,0,0,1.37628,18402.1,1389.52)">
            <path d="M314.273,190.015C317.032,184.775 321.294,177.887 326.566,170.136C344.853,143.247 375.243,105.25 392.729,89.924C401.799,81.974 408.187,73.112 410.912,64.868C412.657,59.59 412.897,54.637 410.916,50.609C408.963,46.637 404.874,43.798 398.672,42.234C389.025,39.802 377.596,42.45 365.693,48.486C346.545,58.196 326.414,76.731 310.252,99.629L310.245,99.639C282.972,138.075 276.372,189.124 276.372,189.124C276.173,190.653 275.303,192.015 273.999,192.838C272.694,193.661 271.091,193.86 269.625,193.381C236.055,182.404 204.583,195.314 204.583,195.314C203.07,195.936 201.353,195.807 199.95,194.966C198.547,194.124 197.624,192.67 197.46,191.043C190.818,125.219 167.615,65.169 145.53,45.104C145.524,45.099 145.519,45.094 145.514,45.089C135.617,36.022 125.788,32.302 117.094,33.033C108.829,33.728 101.797,38.512 97.093,45.888C96.208,47.276 96.021,49.225 96.079,51.565C96.2,56.499 97.741,62.767 100.182,69.923C110.378,99.802 136.239,143.848 152.695,172.153C167.503,197.338 175.303,212.855 175.303,212.855C176.588,215.409 175.557,218.526 173.002,219.81C170.448,221.095 167.331,220.064 166.047,217.51C166.047,217.51 158.354,202.217 143.757,177.392C143.753,177.385 143.749,177.378 143.744,177.37C126.996,148.563 100.755,103.683 90.377,73.269C87.528,64.919 85.863,57.576 85.721,51.82C85.603,47.032 86.547,43.156 88.357,40.318C94.88,30.09 104.766,23.672 116.225,22.709C127.253,21.781 139.95,25.944 152.503,37.442C174.915,57.81 199.241,117.186 207.064,183.561C218.007,180.321 241.576,175.264 267.062,181.844C269.78,166.773 278.853,125.979 301.79,93.65C319.021,69.238 340.593,49.597 361.007,39.245C375.48,31.906 389.475,29.231 401.205,32.188C432.077,39.97 428.056,72.738 399.558,97.715C382.513,112.655 352.959,149.751 335.134,175.962C327.807,186.736 322.445,195.535 321.098,199.994C320.972,200.411 320.797,200.801 320.583,201.159C324.988,210.807 328.015,222.271 329.735,234.343C334.147,265.307 330.088,300.103 321.004,316.767L320.998,316.777C320.029,318.544 319.003,320.287 317.925,322.003C321.837,321.83 324.475,321.712 324.475,321.712C325.202,316.059 327.005,306.042 331.25,297.347C335.987,287.647 343.68,279.728 355.369,279.232C364.167,278.859 371.454,280.692 376.979,283.746C376.997,283.719 377.015,283.692 377.034,283.665C377.034,283.665 380.54,278.57 386.077,275.453C390.237,273.11 395.424,271.861 401.118,273.853C408.509,276.439 411.995,281.918 412.224,287.437C412.332,290.041 411.696,292.765 410.243,295.301C410.663,295.496 411.085,295.705 411.505,295.929C417.32,299.023 422.888,304.673 422.177,314.738C422.176,314.756 422.175,314.774 422.173,314.792C421.35,324.919 415.475,330.292 410.147,333.104C411.672,335.608 412.528,338.622 411.912,341.938C411.49,344.217 410.358,346.724 407.935,349.288C403.426,354.061 399.314,355.666 395.744,355.88C390.635,356.186 386.197,353.334 382.279,350.483C382.171,350.404 382.067,350.322 381.966,350.237C377.171,354.473 369.624,357.222 358.594,356.233L358.592,356.233C335.669,354.171 327.76,339.223 325.202,331.625L310.595,332.275C301.423,343.685 290.095,353.213 278.573,359.27C273.122,362.236 268.089,364.082 263.505,365.092C261.128,365.663 258.779,366.049 256.478,366.238L256.475,366.238C235.484,367.942 210.453,362.568 186.729,338.762L177.323,339.242L178.847,361.499C178.943,362.899 178.467,364.277 177.528,365.32C176.589,366.362 175.267,366.979 173.865,367.03L156.473,367.656C154.978,367.709 153.533,367.115 152.509,366.024C151.486,364.933 150.984,363.454 151.132,361.965C151.132,361.965 151.803,355.225 151.803,355.225L147.629,355.416L149.43,362.106C149.838,363.621 149.538,365.238 148.614,366.505C147.691,367.772 146.243,368.552 144.677,368.628L127.126,369.472C124.31,369.607 121.903,367.466 121.709,364.653L119.812,337.083C119.717,335.697 120.182,334.33 121.104,333.29C122.027,332.251 123.328,331.625 124.716,331.554L170.152,329.234C170.556,329.101 170.983,329.015 171.428,328.984C171.935,328.95 172.43,328.989 172.902,329.094L177.988,328.834C168.905,316.23 164.764,298.648 163.34,281.594C161.087,254.624 165.41,229.184 165.41,229.184C165.888,226.365 168.565,224.465 171.384,224.943C174.203,225.422 176.103,228.099 175.624,230.918C175.624,230.918 171.523,255.098 173.664,280.732C175.036,297.152 178.856,314.266 188.507,325.461C189.314,326.39 190.122,327.294 190.933,328.173L214.208,326.985C217.064,326.839 219.5,329.039 219.646,331.894C219.792,334.75 217.592,337.186 214.736,337.332L201.284,338.019C210.917,345.972 220.661,350.829 230.09,353.49C225.019,346.304 222.247,338.156 221.376,332.827C221.046,330.808 221.936,328.783 223.646,327.661C225.357,326.538 227.568,326.527 229.29,327.634C238.465,333.531 246.735,335.123 253.532,333.476C256.357,332.792 258.893,331.547 261.091,329.875C251.961,329.434 245.756,326.631 241.5,323.249C231.793,315.533 231.587,304.145 231.587,304.145C231.54,302.261 232.52,300.499 234.147,299.545C235.773,298.592 237.79,298.598 239.411,299.56C248.048,304.688 256.372,305.707 263.951,299.837C263.323,291.373 262.167,265.635 269.794,250.967C278.259,234.5 293.71,226.341 301.479,223.123C298.765,213.482 293.71,205.381 283.24,198.988C281.33,197.822 280.385,195.561 280.896,193.382C280.896,193.382 294.657,134.883 331.519,92.486L331.527,92.477C351.34,69.796 365.873,65.108 375.066,65.476C386.3,65.926 391.372,73.529 391.372,73.529C392.775,75.529 392.591,78.237 390.931,80.028C364.671,108.349 334.372,143.679 311.102,185.956C312.205,187.228 313.262,188.583 314.273,190.015ZM305.033,322.577C307.563,319.123 309.875,315.514 311.91,311.803C320.279,296.445 323.543,264.335 319.478,235.804C316.834,217.249 311.165,200.129 301.166,190.519C299.49,188.909 299.092,186.38 300.191,184.333C323.052,141.772 353.022,105.971 379.582,77.049C374.112,74.508 361.523,73.889 339.334,99.288C309.348,133.781 295.38,179.432 291.885,192.265C304.438,201.036 309.924,212.102 312.673,225.346C313.227,228.013 311.62,230.653 308.997,231.388C308.997,231.388 288.571,237.094 279.005,255.711C279,255.719 278.996,255.727 278.992,255.735C270.832,271.407 274.485,301.451 274.485,301.451C274.669,303.075 274.077,304.69 272.887,305.81C264.57,313.633 255.615,315.804 246.265,313.589C246.766,314.123 247.324,314.643 247.947,315.138C252.35,318.637 259.663,320.68 271.605,318.964C273.514,318.69 275.417,319.499 276.544,321.063C277.672,322.628 277.837,324.689 276.973,326.413C272.734,334.873 265.392,341.264 255.971,343.546C249.922,345.011 242.936,344.792 235.316,342.125C236.845,345.181 238.844,348.277 241.354,350.989C244.071,353.908 250.141,356.815 259.008,355.476C262.538,354.858 266.152,353.732 269.774,352.169C277.29,348.778 285.946,342.749 295.709,332.937L285.483,333.391C282.744,333.513 280.421,331.388 280.299,328.649C280.178,325.91 282.302,323.587 285.042,323.465C285.042,323.465 295.084,323.019 305.033,322.577ZM384.957,290.276C391.269,297.924 391.746,307.998 385.162,316.479C384.712,317.061 384.212,317.658 383.667,318.266C384.744,319.418 385.59,320.587 386.17,321.74C386.176,321.752 386.182,321.765 386.188,321.777C389.285,328.065 389.967,335.395 387.721,341.699C387.945,341.817 388.164,341.952 388.374,342.105C389.44,342.88 390.538,343.707 391.7,344.399C392.76,345.028 393.859,345.613 395.124,345.537C396.737,345.441 398.367,344.329 400.404,342.173C401.129,341.405 401.599,340.73 401.726,340.048C401.942,338.879 401.037,338.012 400.369,337.311C399.246,336.133 398.042,335.432 398.042,335.432C396.087,334.325 395.068,332.084 395.52,329.883C395.971,327.682 397.79,326.023 400.023,325.775C400.023,325.775 410.96,324.616 411.846,313.958C412.163,309.178 409.408,306.549 406.638,305.075C403.291,303.294 399.848,302.944 399.848,302.944C397.587,302.726 395.732,301.061 395.272,298.837C394.812,296.613 395.855,294.348 397.843,293.251C400.399,291.842 401.957,289.91 401.872,287.867C401.794,285.996 400.202,284.509 397.697,283.633C394.471,282.504 391.661,283.97 389.609,285.494C387.1,287.356 385.562,289.549 385.562,289.549C385.379,289.813 385.176,290.056 384.957,290.276ZM367.405,319.374C361.115,316.717 353.368,315.023 346.906,315.394C343.241,315.605 339.976,316.304 338.255,318.547C337.291,319.805 337.033,321.538 337.327,323.755C337.646,326.048 338.352,327.657 339.686,328.522C342.214,330.16 345.9,329.539 349.883,328.331C349.889,328.33 349.895,328.328 349.9,328.326C355.698,326.592 362.062,323.171 367.405,319.374ZM376.423,324.932C369.603,330.315 360.746,335.449 352.763,337.84C348.877,339.018 345.154,339.505 341.828,339.242C345.661,342.67 351.282,345.6 359.481,346.338C367.184,347.027 372.495,345.556 375.688,342.516C380.076,338.337 379.931,331.577 377.279,326.176C377.062,325.751 376.774,325.337 376.423,324.932ZM337.917,307.161C340.414,306.217 343.259,305.652 346.336,305.475C355.063,304.973 365.738,307.481 373.751,311.34C374.407,311.656 375.045,311.983 375.663,312.319C376.272,311.664 376.821,311.023 377.302,310.401L377.31,310.391C385.038,300.444 374.682,288.357 355.79,289.159C348.028,289.488 343.324,295.265 340.179,301.706C339.312,303.482 338.563,305.322 337.917,307.161ZM166.974,339.771L130.51,341.633C130.51,341.633 131.697,358.879 131.697,358.879L137.753,358.588L135.947,351.881C135.539,350.365 135.841,348.745 136.767,347.478C137.694,346.21 139.145,345.431 140.714,345.359L157.316,344.603C158.818,344.534 160.277,345.122 161.311,346.214C162.346,347.306 162.855,348.794 162.706,350.291L162.029,357.088L168.145,356.868L166.974,339.771ZM220.16,282.816C220.16,282.816 212.252,282.591 204.081,278.987C195.432,275.172 186.574,267.748 185.433,253.538C184.555,242.565 188.173,237.062 192.343,234.831C195.243,233.279 198.815,233.018 202.639,234.136C206.943,235.394 211.711,238.507 215.702,242.723C219.988,247.239 222.558,253.937 223.923,260.429C225.813,269.411 225.5,277.827 225.5,277.827C225.396,280.676 223.01,282.906 220.16,282.816ZM215.001,271.678C214.829,269.085 214.48,265.869 213.785,262.562C212.813,257.943 211.235,253.065 208.186,249.853L208.18,249.848C205.952,247.493 203.417,245.574 200.956,244.524C199.562,243.929 198.263,243.413 197.231,243.966C196.524,244.344 196.259,245.248 195.994,246.455C195.632,248.104 195.558,250.172 195.761,252.71C196.518,262.141 202.522,266.975 208.262,269.507C210.649,270.56 213.004,271.24 215.001,271.678Z"/>
        </g>
    </g>
</svg>
