<?xml version="1.0" encoding="UTF-8" standalone="no"?><!DOCTYPE svg PUBLIC "-//W3C//DTD SVG 1.1//EN" "http://www.w3.org/Graphics/SVG/1.1/DTD/svg11.dtd"><svg width="100%" height="100%" viewBox="0 0 8684 8684" version="1.1" xmlns="http://www.w3.org/2000/svg" xmlns:xlink="http://www.w3.org/1999/xlink" xml:space="preserve" xmlns:serif="http://www.serif.com/" style="fill-rule:evenodd;clip-rule:evenodd;stroke-linecap:round;stroke-linejoin:round;stroke-miterlimit:4.62209;"><g><path d="M5918.83,4378.11c-0,0 595.781,1609.9 18.511,2851.49c-577.269,1241.59 -1439.06,1159.12 -1700.2,1255.33c-261.145,96.212 -1397.36,-210.749 -1773.04,-1131.63c-375.684,-920.883 -174.098,-2409.87 -174.098,-2409.87l-2.764,-148.72c-0,0 -193.424,-384.642 -560.532,-1009c-592.108,-1018.45 -1665.79,-2847.58 -1385.53,-3287.07c280.266,-439.485 844.737,-559.345 1405.27,-45.766c564.478,512.859 1168.42,2043.79 1338.17,3726.19c0,-0 828.95,-340.693 1713.16,-51.577c-0,0 169.739,-1307.56 868.429,-2292.22c694.737,-984.308 1677.64,-1651.89 2344.74,-1483.72c667.109,168.171 521.06,873.53 -94.738,1413.27c-615.794,539.732 -1878.96,2221.41 -1997.38,2613.31Z" style="fill:#fff;"/><path d="M2339.83,7764.88l-1193.39,64.289l47.37,688.29l438.162,-21.068l-86.841,-322.534l414.471,-18.887l-31.575,317.086l434.211,-15.621l-22.404,-691.555Z" style="fill:#fff;"/><path id="pink" d="M4428.82,8437.2l-414.478,-17.761c134.211,-7.111 82.897,-63.158 39.473,-90.793c-228.951,-147.235 -382.896,-548.684 -327.636,-566.845c0,0 394.745,120.398 485.533,122.764c146.053,4.345 374.999,-26.844 457.895,-171.319c19.739,-34.734 102.631,-170.526 63.158,-169.733c-659.211,13.422 -765.793,-367.901 -757.896,-538.82c0,0 603.95,172.898 757.896,-36.314c150,-209.611 -55.261,-889.347 153.951,-1220.53c82.896,-131.054 205.26,-238.815 323.684,-340.659c169.739,-141.315 450.005,-196.189 497.375,-402.242c31.575,-139.736 -122.369,-368.688 -177.636,-432.238c-110.527,-129.867 -240.788,-245.525 -367.108,-360.791c86.842,-271.975 173.684,-545.137 288.162,-809.216c244.74,-575.528 631.581,-1034.22 963.162,-1586.06c327.636,-552.635 1369.74,-819.479 1152.64,-388.82c0,0 -497.374,571.188 -528.951,605.136c-651.319,778.421 -919.743,1245.01 -1393.43,2053.04c74.999,76.973 146.053,154.345 209.211,238.816c59.212,82.109 106.582,287.763 146.054,379.743c189.479,420.395 181.582,847.896 185.527,1259.61c7.897,797.767 -240.787,1511.07 -896.053,2055.01c-221.054,183.161 -544.744,392.373 -860.531,418.031l-0.006,0.004Zm-915.798,-2091.73c0,-0 -615.792,34.74 -718.423,-494.61c-118.423,-639.078 288.157,-535.655 517.108,-294.075c228.945,241.58 201.315,788.685 201.315,788.685Z" style="fill:#f70484;"/><path d="M2287.24,4794.71c-0,0 -193.424,-384.642 -560.532,-1009c-592.108,-1018.45 -1665.79,-2847.58 -1385.53,-3287.07c280.266,-439.485 844.737,-559.345 1405.27,-45.766c564.478,512.859 1168.42,2043.79 1338.17,3726.19c0,-0 828.95,-340.693 1713.16,-51.577c-0,0 169.739,-1307.56 868.429,-2292.22c694.737,-984.308 1677.64,-1651.89 2344.74,-1483.72c667.109,168.171 521.06,873.53 -94.738,1413.27c-615.794,539.732 -1878.96,2221.41 -1997.38,2613.31" style="fill:none;stroke:#000;stroke-width:258.66px;"/><path d="M2283.29,5165.91c0,0 -292.108,1720.54 351.315,2466.58c600.004,691.555 1247.38,848.099 1784.22,804.514c532.902,-43.585 1168.42,-548.815 1507.91,-1168.08c363.157,-666.13 374.999,-2542.12 -292.109,-3183.19c592.108,-1102.35 1377.64,-2020.92 2056.59,-2753.16c0,-0 -386.841,-550.991 -1290.8,483.804c-900.004,1035.15 -1235.53,2463.66 -1235.53,2463.66c335.526,204.849 473.683,471.449 540.791,794.71c0,-0 -564.477,157.992 -828.955,672.668c-217.103,416.963 -126.315,1215.66 -126.315,1215.66c-248.685,233.909 -525.004,220.469 -813.162,49.395c0,0 15.789,626.545 888.162,501.237c-177.63,354.492 -611.841,539.733 -1144.74,197.221c23.684,144.922 110.527,383.194 276.32,562.254c177.63,191.052 801.319,425.683 1756.58,-677.752" style="fill:none;stroke:#000;stroke-width:258.66px;stroke-miterlimit:3.75;"/><path d="M3380.67,7715.09l-2234.23,114.072l47.37,688.29l438.162,-21.068l-86.841,-322.534l414.471,-18.887l-31.575,317.086l434.211,-15.621l-47.37,-691.555" style="fill:none;stroke:#000;stroke-width:258.66px;stroke-miterlimit:1.5;"/><path d="M5147.98,7621.96l1091.47,-48.521c-0,-0 57.123,-1030.02 664.047,-1055.78c606.924,-25.754 888.736,410.526 640.449,730.086c-134.769,174.352 -464.845,406.176 -746.683,490.485c-233.087,70.667 -437.159,38.209 -472.337,-216.25c-79.459,-595.607 1077.88,-316.741 1231.47,-11.283c150.028,304.643 32.017,735.54 -566.576,681.906c-667.083,-60.004 -750.369,-619.165 -750.369,-619.165" style="fill:none;stroke:#000;stroke-width:248.05px;stroke-miterlimit:1.5;"/><path d="M7545.57,6577.87c-0,0 196.999,-285.577 452.118,-196.331c246.844,86.35 253.996,348.283 23.412,475.463c-0,-0 442.268,42.684 416.038,414.054c-30.169,371.089 -409.823,413.21 -409.823,413.21c-0,-0 285.689,161.749 89.258,369.662c-204.157,216.089 -346.463,104.255 -470.429,14.063" style="fill:none;stroke:#000;stroke-width:258.66px;stroke-miterlimit:1.5;"/><path d="M3526.72,6353.97c0,-0 19.733,-541.549 -209.212,-782.725c-228.95,-241.895 -572.374,-322.17 -532.902,170.711c47.37,590.219 742.114,612.014 742.114,612.014Z" style="fill:none;stroke:#000;stroke-width:258.66px;stroke-miterlimit:1.5;"/></g></svg>